<?xml version="1.0" encoding="UTF-8"?> <svg xmlns="http://www.w3.org/2000/svg" width="209" height="188" viewBox="0 0 209 188" fill="none"> <path d="M45.2828 1.51416C33.3222 20.2799 21.8682 39.7905 8.89751 57.8366C8.20178 58.8046 0.970816 69.2105 2.11888 65.6619C4.61696 57.9406 11.3475 51.3741 15.6263 44.5784C23.0381 32.8068 28.2269 19.2925 41.5944 13.2771C47.1266 10.7876 58.3537 4.7174 64.1234 9.28965C78.8381 20.9503 74.8888 36.2609 57.4445 43.1329C44.717 48.1468 31.5771 44.3303 21.9563 34.7095" stroke="#D8FD12" stroke-width="3" stroke-linecap="round"></path> <path d="M47.0771 82.2594C64.541 73.1233 100.187 63.1791 100.907 38.6968C101.153 30.3549 91.2987 30.9508 85.3066 36.0551C74.2056 45.5115 54.0566 112.851 77.3318 111.816C87.6013 111.36 96.6199 103.152 102.303 95.0192C102.765 94.3587 106.85 86.0264 104.845 88.3403C99.3637 94.6648 96.7429 121.637 110.976 111.966C117.398 107.602 129.27 82.11 115.661 81.4121C105.029 80.8669 89.0793 91.2911 96.621 103.393C105.407 117.492 114.102 104.851 119.748 97.2123C121.068 95.4266 122.44 92.3477 122.44 96.2653C122.44 103.592 124.118 109.894 130.115 114.508C136.996 119.8 143.662 118.122 150.451 113.461C155.945 109.69 170.332 100.996 170.887 93.2249C171.077 90.5609 167.117 98.574 166.899 99.4054C165.302 105.504 165.074 113.777 172.731 115.804C185.581 119.205 215.872 85.087 203.982 91.0318C192.807 96.6196 193.027 122.826 191.322 132.8C189.269 144.818 185.63 158.825 179.161 169.285C172.644 179.823 157.319 193.106 144.57 182.593C134.94 174.653 128.587 155.364 135.598 144.164C140.855 135.767 148.671 135.643 157.429 134.295" stroke="#D8FD12" stroke-width="3" stroke-linecap="round"></path> </svg> 