<?xml version="1.0" standalone="no"?>
<!DOCTYPE svg PUBLIC "-//W3C//DTD SVG 20010904//EN"
 "http://www.w3.org/TR/2001/REC-SVG-20010904/DTD/svg10.dtd">
<svg version="1.0" xmlns="http://www.w3.org/2000/svg"
 width="709.000000pt" height="1280.000000pt" viewBox="0 0 709.000000 1280.000000"
 preserveAspectRatio="xMidYMid meet">
<metadata>
Created by potrace 1.15, written by Peter Selinger 2001-2017
</metadata>
<g transform="translate(0.000000,1280.000000) scale(0.100000,-0.100000)"
fill="#ffffff" stroke="none">
<path d="M3400 12593 c-206 -7 -511 -50 -705 -99 -596 -151 -1114 -451 -1572
-910 -435 -437 -696 -866 -885 -1454 l-43 -135 -3 -4995 -2 -4995 3355 0 3355
0 -2 5025 -3 5025 -56 165 c-189 552 -463 980 -900 1405 -516 502 -1098 803
-1774 919 -210 36 -532 57 -765 49z"/>
</g>
</svg>
