<?xml version="1.0"?>
<svg width="709" height="1280" xmlns="http://www.w3.org/2000/svg" xmlns:svg="http://www.w3.org/2000/svg" preserveAspectRatio="xMidYMid meet" version="1.0">
 <metadata>Created by potrace 1.15, written by Peter Selinger 2001-2017</metadata>
 <g class="layer">
  <title>Layer 1</title>
  <g fill="#ffebf5" id="svg_1" transform="matrix(0.1 0 0 -0.1 0 0)">
   <path d="m3400,-207c-206,-7 -511,-50 -705,-99c-596,-151 -1114,-451 -1572,-910c-435,-437 -696,-866 -885,-1454l-43,-135l-3,-4995l-2,-4995l3355,0l3355,0l-2,5025l-3,5025l-56,165c-189,552 -463,980 -900,1405c-516,502 -1098,803 -1774,919c-210,36 -532,57 -765,49z" fill="none" id="svg_2"/>
  </g>
 </g>
</svg>