<?xml version="1.0" encoding="UTF-8"?> <svg xmlns="http://www.w3.org/2000/svg" width="109" height="202" viewBox="0 0 109 202" fill="none"> <path d="M2.12378 1.83887C24.2545 3.12554 38.6755 6.84736 51.1326 26.3116C57.4271 36.1467 59.9615 47.2474 63.1788 58.329C69.3011 79.417 66.0318 104.189 66.0318 125.978C66.0318 141.663 69.231 165.922 78.078 178.791C81.7193 184.087 85.4486 190.008 90.885 193.563C93.5901 195.332 100.225 194.617 101.41 196.987" stroke="#D8FD12" stroke-width="3" stroke-linecap="round"></path> <path d="M101.637 197.834C92.9872 189.117 82.9204 174.089 91.0376 161.913" stroke="#D8FD12" stroke-width="3" stroke-linecap="round"></path> <path d="M72.194 194.301C81.8575 194.301 89.7306 194.676 98.9873 196.1C101.864 196.543 104.64 200.189 106.937 200.189" stroke="#D8FD12" stroke-width="3" stroke-linecap="round"></path> </svg> 