<?xml version="1.0" encoding="UTF-8"?> <svg xmlns="http://www.w3.org/2000/svg" width="120" height="200" viewBox="0 0 120 200" fill="none"> <path d="M7.01807 156.872C11.4071 166.265 16.2253 175.233 21.2924 184.266C21.5868 184.791 22.091 185.49 22.6044 185.788C24.8991 187.116 26.5057 189.357 27.3275 191.823" stroke="#D8FD12" stroke-width="3" stroke-linecap="round"></path> <path d="M23.0767 197.963C24.2976 196.025 27.881 186.627 31.5783 186.627" stroke="#D8FD12" stroke-width="3" stroke-linecap="round"></path> <path d="M1.82251 162.067C4.7203 158.143 8.94155 153.952 10.7965 149.314" stroke="#D8FD12" stroke-width="3" stroke-linecap="round"></path> <path d="M25.438 135.618C30.4262 143.931 35.5936 152.114 40.552 160.44C41.6714 162.32 45.0174 169.624 47.1644 169.624" stroke="#D8FD12" stroke-width="3" stroke-linecap="round"></path> <path d="M49.0537 153.565C56.1171 149.887 59.9785 147.798 54.8264 140.656C53.3737 138.642 49.8983 138.307 47.6368 139.186C41.1339 141.715 46.4031 151.796 50.9429 153.093" stroke="#D8FD12" stroke-width="3" stroke-linecap="round"></path> <path d="M52.8323 130.895C57.0223 132.961 61.5606 135.791 66.3194 136.457C68.4049 136.749 64.6394 131.673 64.2727 131C62.2625 127.309 58.9723 115.356 58.9723 119.559" stroke="#D8FD12" stroke-width="3" stroke-linecap="round"></path> <path d="M69.3633 119.559C69.2671 117.091 70.9872 95.9434 64.0629 95.9434C60.7683 95.9434 59.4913 100.771 60.5992 103.395C63.729 110.808 78.8095 109.955 78.8095 101.139" stroke="#D8FD12" stroke-width="3" stroke-linecap="round"></path> <path d="M75.031 65.7153C78.3855 69.5407 81.6508 73.4859 85.3694 76.9721C87.5963 79.0598 87.5684 78.2145 87.7835 75.6339" stroke="#D8FD12" stroke-width="3" stroke-linecap="round"></path> <path d="M70.3079 30.7642C75.4875 41.4019 81.195 52.952 89.7776 61.3595C98.0152 69.429 97.5286 56.1513 97.702 50.6013" stroke="#D8FD12" stroke-width="3" stroke-linecap="round"></path> <path d="M74.0864 59.1026C77.7945 52.1368 81.4203 45.1237 85.4219 38.3208" stroke="#D8FD12" stroke-width="3" stroke-linecap="round"></path> <path d="M85.894 1.95312C91.0466 12.4796 96.3871 29.1118 107.148 35.9597" stroke="#D8FD12" stroke-width="3" stroke-linecap="round"></path> <path d="M113.77 39.9365C114.277 41.8235 114.861 43.5196 115.601 45.2647" stroke="#D8FD12" stroke-width="3" stroke-linecap="round"></path> <path d="M106.268 150.403C99.8455 146.221 96.4283 142.536 90.462 148.991C88.7609 150.831 83.947 155.279 85.9245 158.368C88.2866 162.059 92.9783 163.072 97.0413 163.108C102.362 163.154 106.589 163.316 111.259 166.057C112.589 166.838 117.741 171.016 118.065 170.368" stroke="#D8FD12" stroke-width="3" stroke-linecap="round"></path> <path d="M106.268 151.764C105.041 146.799 99.1743 129.777 110.15 129.984C116.187 130.098 117.611 142.537 117.611 146.772C117.611 152.507 118.13 158.507 117.586 164.217C117.408 166.087 116.061 172.541 118.065 173.544" stroke="#D8FD12" stroke-width="3" stroke-linecap="round"></path> </svg> 