<?xml version="1.0" encoding="UTF-8"?> <svg xmlns="http://www.w3.org/2000/svg" width="3455" height="169" viewBox="0 0 3455 169" fill="none"> <mask id="path-1-outside-1_28_953" maskUnits="userSpaceOnUse" x="0" y="0" width="3455" height="169" fill="black"> <rect fill="white" width="3455" height="169"></rect> <path d="M41.5215 163.077V158L53.2855 155.462C58.6677 154.231 62.0509 152.846 63.4349 151.308C64.9726 149.769 65.7415 146.615 65.7415 141.846V15.3846H48.9028C42.2903 15.3846 36.293 17.1538 30.9108 20.6923C25.5285 24.0769 20.9921 28.6923 17.3014 34.5385C13.6107 40.2308 10.9196 46.4615 9.22802 53.2308H3C3.92267 49.0769 4.69156 44.3846 5.30667 39.1539C6.07557 33.7692 6.5369 28.3846 6.69068 23C6.84446 17.4616 6.5369 12.3846 5.76801 7.76924H158.008C157.24 12.3846 156.932 17.4616 157.086 23C157.24 28.3846 157.701 33.7692 158.47 39.1539C159.239 44.3846 160.008 49.0769 160.776 53.2308H154.548C152.857 46.4615 150.166 40.2308 146.475 34.5385C142.784 28.6923 138.248 24.0769 132.866 20.6923C127.637 17.1538 121.64 15.3846 114.874 15.3846H98.035V141.846C98.035 146.615 98.8039 149.769 100.342 151.308C101.879 152.846 105.263 154.231 110.491 155.462L122.255 158V163.077H41.5215Z"></path> <path d="M277.518 163.077V158L289.282 155.462C294.664 154.231 298.047 152.846 299.431 151.308C300.969 149.769 301.738 146.615 301.738 141.846V29C301.738 24.0769 300.969 20.8462 299.431 19.3077C298.047 17.7692 294.664 16.4615 289.282 15.3846L277.518 12.8462V7.76924H358.251V12.8462L346.487 15.3846C341.259 16.4615 337.876 17.7692 336.338 19.3077C334.8 20.8462 334.031 24.0769 334.031 29V141.846C334.031 146.615 334.8 149.769 336.338 151.308C337.876 152.846 341.259 154.231 346.487 155.462L358.251 158V163.077H277.518ZM170.027 163.077V158L181.791 155.462C187.173 154.231 190.556 152.846 191.94 151.308C193.478 149.769 194.247 146.615 194.247 141.846V29C194.247 24.0769 193.478 20.8462 191.94 19.3077C190.556 17.7692 187.173 16.4615 181.791 15.3846L170.027 12.8462V7.76924H250.76V12.8462L238.996 15.3846C233.768 16.4615 230.385 17.7692 228.847 19.3077C227.309 20.8462 226.54 24.0769 226.54 29V141.846C226.54 146.615 227.309 149.769 228.847 151.308C230.385 152.846 233.768 154.231 238.996 155.462L250.76 158V163.077H170.027ZM222.388 84.3846V76.7692H310.964V84.3846H222.388Z"></path> <path d="M372.086 163.077V158L383.85 155.462C389.232 154.231 392.615 152.846 393.999 151.308C395.537 149.769 396.306 146.615 396.306 141.846V29C396.306 24.0769 395.537 20.8462 393.999 19.3077C392.615 17.7692 389.232 16.4615 383.85 15.3846L372.086 12.8462V7.76924H504.258C503.797 9.92309 503.489 12.0769 503.336 14.2308C503.182 16.2308 503.105 18.3077 503.105 20.4615C503.105 25.2308 503.489 29.9231 504.258 34.5385C505.027 39 505.796 43.6923 506.565 48.6154H501.49C499.03 42.4616 495.8 36.9231 491.802 32C487.804 26.9231 483.114 22.9231 477.731 20C472.349 16.9231 466.198 15.3846 459.278 15.3846H428.599V77.2308H458.125C465.814 77.2308 471.273 75.6923 474.502 72.6154C477.885 69.5385 480.038 65.2308 480.961 59.6923L482.806 49.0769H487.881V113H482.806L480.73 101.923C479.808 96.5385 477.732 92.3846 474.502 89.4615C471.273 86.3846 465.967 84.8461 458.586 84.8461H428.599V135.615C428.599 140.077 428.83 143.846 429.291 146.923C429.753 149.846 431.06 152 433.213 153.385C435.519 154.769 439.287 155.462 444.515 155.462H461.585C467.121 155.462 472.042 154.692 476.347 153.154C480.653 151.462 484.575 149.154 488.112 146.231C491.648 143.154 494.878 139.538 497.8 135.385L507.718 121.538H512.793C511.255 128.308 509.871 135.154 508.641 142.077C507.564 149 507.026 156 507.026 163.077H372.086Z"></path> <path d="M592.391 163.077V158L604.155 155.462C609.537 154.231 612.921 152.846 614.305 151.308C615.842 149.769 616.611 146.615 616.611 141.846V29C616.611 24.0769 615.842 20.8462 614.305 19.3077C612.921 17.7692 609.537 16.4615 604.155 15.3846L592.391 12.8462V7.76924H724.564C724.102 9.92309 723.795 12.0769 723.641 14.2308C723.487 16.2308 723.41 18.3077 723.41 20.4615C723.41 25.2308 723.795 29.9231 724.564 34.5385C725.333 39 726.101 43.6923 726.87 48.6154H721.796C719.335 42.4616 716.106 36.9231 712.108 32C708.109 26.9231 703.419 22.9231 698.037 20C692.655 16.9231 686.504 15.3846 679.583 15.3846H648.905V77.2308H678.43C686.119 77.2308 691.578 75.6923 694.808 72.6154C698.191 69.5385 700.344 65.2308 701.266 59.6923L703.112 49.0769H708.186V113H703.112L701.036 101.923C700.113 96.5385 698.037 92.3846 694.808 89.4615C691.578 86.3846 686.273 84.8461 678.891 84.8461H648.905V135.615C648.905 140.077 649.135 143.846 649.597 146.923C650.058 149.846 651.365 152 653.518 153.385C655.825 154.769 659.592 155.462 664.821 155.462H681.89C687.426 155.462 692.347 154.692 696.653 153.154C700.959 151.462 704.88 149.154 708.417 146.231C711.954 143.154 715.183 139.538 718.105 135.385L728.024 121.538H733.098C731.561 128.308 730.177 135.154 728.946 142.077C727.87 149 727.332 156 727.332 163.077H592.391Z"></path> <path d="M823.502 166.538L762.375 21.3846C761.76 19.6923 760.607 18.3846 758.915 17.4615C757.377 16.5385 755.686 15.9231 753.84 15.6154L741.154 12.8462V7.76924H824.194V12.8462L812.43 15.3846C808.585 16.1539 805.741 17.2308 803.895 18.6154C802.05 19.8461 801.127 21.5385 801.127 23.6923C801.127 24.3077 801.204 25.0769 801.358 26C801.665 26.9231 801.973 27.8462 802.281 28.7692L843.57 135.154H837.342L880.938 28.0769C881.246 27.3077 881.476 26.6154 881.63 26C881.784 25.3846 881.861 24.7692 881.861 24.1539C881.861 22.1539 881.015 20.6154 879.323 19.5385C877.632 18.3077 875.095 17.3846 871.711 16.7692L854.411 12.8462V7.76924H918.767V12.8462L904.236 15.8462C901.314 16.4615 898.853 17.3846 896.854 18.6154C894.855 19.6923 893.317 21.5385 892.241 24.1539L834.574 166.538H823.502Z"></path> <path d="M1001.2 165.615C989.202 165.615 978.207 163.615 968.211 159.615C958.216 155.462 949.527 149.846 942.146 142.769C934.765 135.538 928.998 127.154 924.846 117.615C920.848 108.077 918.849 97.9231 918.849 87.1538C918.849 75.4615 920.848 64.6923 924.846 54.8462C928.998 44.8462 934.765 36.1539 942.146 28.7692C949.527 21.3846 958.216 15.6923 968.211 11.6923C978.207 7.53847 989.202 5.46154 1001.2 5.46154C1013.19 5.46154 1024.26 7.53847 1034.41 11.6923C1044.56 15.6923 1053.33 21.3077 1060.71 28.5385C1068.09 35.7692 1073.78 44.1538 1077.78 53.6923C1081.93 63.0769 1084.01 73.2308 1084.01 84.1539C1084.01 95.8462 1081.93 106.615 1077.78 116.462C1073.78 126.308 1068.09 134.923 1060.71 142.308C1053.33 149.692 1044.56 155.462 1034.41 159.615C1024.26 163.615 1013.19 165.615 1001.2 165.615ZM1001.2 157.538C1010.88 157.538 1019.27 154.538 1026.34 148.538C1033.41 142.538 1038.87 134.077 1042.72 123.154C1046.72 112.077 1048.71 99.1538 1048.71 84.3846C1048.71 70.3846 1046.72 58.0769 1042.72 47.4615C1038.87 36.8461 1033.41 28.5385 1026.34 22.5385C1019.27 16.5385 1010.88 13.5385 1001.2 13.5385C991.816 13.5385 983.589 16.5385 976.515 22.5385C969.442 28.5385 963.906 37.0769 959.907 48.1538C956.063 59.0769 954.141 72.0769 954.141 87.1538C954.141 97.4615 955.217 106.923 957.37 115.538C959.677 124.154 962.906 131.615 967.058 137.923C971.21 144.231 976.131 149.077 981.821 152.462C987.664 155.846 994.123 157.538 1001.2 157.538Z"></path> <path d="M1100.13 163.077V158L1111.89 155.462C1117.28 154.231 1120.66 152.846 1122.04 151.308C1123.58 149.769 1124.35 146.615 1124.35 141.846V29C1124.35 24.0769 1123.58 20.8462 1122.04 19.3077C1120.66 17.7692 1117.28 16.4615 1111.89 15.3846L1100.13 12.8462V7.76924H1180.86V12.8462L1169.1 15.3846C1163.87 16.4615 1160.49 17.7692 1158.95 19.3077C1157.41 20.8462 1156.64 24.0769 1156.64 29V141.846C1156.64 146 1157.72 149.308 1159.87 151.769C1162.18 154.231 1166.41 155.462 1172.56 155.462H1201.62C1207.47 155.462 1212.62 154.769 1217.08 153.385C1221.54 151.846 1225.46 149.615 1228.84 146.692C1232.23 143.615 1235.22 139.846 1237.84 135.385L1248.68 117.615H1253.75C1252.22 124.385 1250.68 131.923 1249.14 140.231C1247.76 148.385 1247.06 156 1247.06 163.077H1100.13Z"></path> <path d="M1338.96 165.615C1331.58 165.615 1324.36 164.385 1317.28 161.923C1310.36 159.308 1304.06 155.692 1298.37 151.077C1292.83 146.462 1288.45 141 1285.22 134.692C1281.99 128.231 1280.37 121.154 1280.37 113.462V29C1280.37 24.0769 1279.61 20.8462 1278.07 19.3077C1276.68 17.7692 1273.3 16.4615 1267.92 15.3846L1256.15 12.8462V7.76924H1336.89V12.8462L1325.12 15.3846C1319.9 16.4615 1316.51 17.7692 1314.97 19.3077C1313.44 20.8462 1312.67 24.0769 1312.67 29V112.308C1312.67 123.846 1315.97 133 1322.59 139.769C1329.2 146.538 1339.04 149.923 1352.11 149.923C1359.65 149.923 1366.26 148.385 1371.95 145.308C1377.64 142.077 1382.1 137.692 1385.33 132.154C1388.71 126.615 1390.4 120.308 1390.4 113.231V29C1390.4 25.1539 1389.33 22.3077 1387.17 20.4615C1385.17 18.4615 1382.1 17.0769 1377.95 16.3077L1361.11 12.8462V7.76924H1424.54V12.8462L1411.16 15.8462C1407.01 16.7692 1403.86 18.1539 1401.71 20C1399.71 21.8462 1398.71 24.8462 1398.71 29V137.923C1396.25 137.923 1394.02 138.923 1392.02 140.923C1390.17 142.769 1387.94 145 1385.33 147.615C1382.87 150.231 1379.79 152.923 1376.1 155.692C1372.56 158.462 1367.8 160.846 1361.8 162.846C1355.96 164.692 1348.34 165.615 1338.96 165.615Z"></path> <path d="M1469.9 163.077V158L1481.67 155.462C1487.05 154.231 1490.43 152.846 1491.82 151.308C1493.35 149.769 1494.12 146.615 1494.12 141.846V15.3846H1477.28C1470.67 15.3846 1464.67 17.1538 1459.29 20.6923C1453.91 24.0769 1449.37 28.6923 1445.68 34.5385C1441.99 40.2308 1439.3 46.4615 1437.61 53.2308H1431.38C1432.3 49.0769 1433.07 44.3846 1433.69 39.1539C1434.46 33.7692 1434.92 28.3846 1435.07 23C1435.23 17.4616 1434.92 12.3846 1434.15 7.76924H1586.39C1585.62 12.3846 1585.31 17.4616 1585.47 23C1585.62 28.3846 1586.08 33.7692 1586.85 39.1539C1587.62 44.3846 1588.39 49.0769 1589.16 53.2308H1582.93C1581.24 46.4615 1578.55 40.2308 1574.86 34.5385C1571.17 28.6923 1566.63 24.0769 1561.25 20.6923C1556.02 17.1538 1550.02 15.3846 1543.25 15.3846H1526.42V141.846C1526.42 146.615 1527.18 149.769 1528.72 151.308C1530.26 152.846 1533.64 154.231 1538.87 155.462L1550.64 158V163.077H1469.9Z"></path> <path d="M1598.41 163.077V158L1610.17 155.462C1615.55 154.231 1618.94 152.846 1620.32 151.308C1621.86 149.769 1622.63 146.615 1622.63 141.846V29C1622.63 24.0769 1621.86 20.8462 1620.32 19.3077C1618.94 17.7692 1615.55 16.4615 1610.17 15.3846L1598.41 12.8462V7.76924H1679.14V12.8462L1667.38 15.3846C1662.15 16.4615 1658.77 17.7692 1657.23 19.3077C1655.69 20.8462 1654.92 24.0769 1654.92 29V141.846C1654.92 146.615 1655.69 149.769 1657.23 151.308C1658.77 152.846 1662.15 154.231 1667.38 155.462L1679.14 158V163.077H1598.41Z"></path> <path d="M1777.67 165.615C1765.68 165.615 1754.68 163.615 1744.69 159.615C1734.69 155.462 1726 149.846 1718.62 142.769C1711.24 135.538 1705.47 127.154 1701.32 117.615C1697.32 108.077 1695.32 97.9231 1695.32 87.1538C1695.32 75.4615 1697.32 64.6923 1701.32 54.8462C1705.47 44.8462 1711.24 36.1539 1718.62 28.7692C1726 21.3846 1734.69 15.6923 1744.69 11.6923C1754.68 7.53847 1765.68 5.46154 1777.67 5.46154C1789.67 5.46154 1800.74 7.53847 1810.89 11.6923C1821.04 15.6923 1829.8 21.3077 1837.18 28.5385C1844.57 35.7692 1850.26 44.1538 1854.25 53.6923C1858.41 63.0769 1860.48 73.2308 1860.48 84.1539C1860.48 95.8462 1858.41 106.615 1854.25 116.462C1850.26 126.308 1844.57 134.923 1837.18 142.308C1829.8 149.692 1821.04 155.462 1810.89 159.615C1800.74 163.615 1789.67 165.615 1777.67 165.615ZM1777.67 157.538C1787.36 157.538 1795.74 154.538 1802.81 148.538C1809.89 142.538 1815.35 134.077 1819.19 123.154C1823.19 112.077 1825.19 99.1538 1825.19 84.3846C1825.19 70.3846 1823.19 58.0769 1819.19 47.4615C1815.35 36.8461 1809.89 28.5385 1802.81 22.5385C1795.74 16.5385 1787.36 13.5385 1777.67 13.5385C1768.29 13.5385 1760.06 16.5385 1752.99 22.5385C1745.92 28.5385 1740.38 37.0769 1736.38 48.1538C1732.54 59.0769 1730.62 72.0769 1730.62 87.1538C1730.62 97.4615 1731.69 106.923 1733.85 115.538C1736.15 124.154 1739.38 131.615 1743.53 137.923C1747.69 144.231 1752.61 149.077 1758.3 152.462C1764.14 155.846 1770.6 157.538 1777.67 157.538Z"></path> <path d="M2028.15 167L1910.74 37.0769V141.846C1910.74 145.692 1911.74 148.615 1913.74 150.615C1915.9 152.462 1919.05 153.769 1923.2 154.538L1940.04 158V163.077H1876.6V158L1889.98 155C1894.14 154.077 1897.21 152.692 1899.21 150.846C1901.36 149 1902.44 146 1902.44 141.846V29C1902.44 25.7692 1902.13 23.3077 1901.52 21.6154C1900.9 19.9231 1899.67 18.6923 1897.83 17.9231C1896.13 17 1893.52 16.1539 1889.98 15.3846L1878.22 12.8462V7.76924H1927.12L2023.77 114.385V29C2023.77 25.1539 2022.69 22.3077 2020.54 20.4615C2018.54 18.4615 2015.47 17.0769 2011.31 16.3077L1994.48 12.8462V7.76924H2057.91V12.8462L2044.53 15.8462C2040.38 16.7692 2037.23 18.1539 2035.07 20C2033.07 21.8462 2032.07 24.8462 2032.07 29V167H2028.15Z"></path> <path d="M2218.73 165.615C2206.74 165.615 2195.74 163.615 2185.75 159.615C2175.75 155.462 2167.06 149.846 2159.68 142.769C2152.3 135.538 2146.53 127.154 2142.38 117.615C2138.38 108.077 2136.39 97.9231 2136.39 87.1538C2136.39 75.4615 2138.38 64.6923 2142.38 54.8462C2146.53 44.8462 2152.3 36.1539 2159.68 28.7692C2167.06 21.3846 2175.75 15.6923 2185.75 11.6923C2195.74 7.53847 2206.74 5.46154 2218.73 5.46154C2230.73 5.46154 2241.8 7.53847 2251.95 11.6923C2262.1 15.6923 2270.86 21.3077 2278.25 28.5385C2285.63 35.7692 2291.32 44.1538 2295.31 53.6923C2299.47 63.0769 2301.54 73.2308 2301.54 84.1539C2301.54 95.8462 2299.47 106.615 2295.31 116.462C2291.32 126.308 2285.63 134.923 2278.25 142.308C2270.86 149.692 2262.1 155.462 2251.95 159.615C2241.8 163.615 2230.73 165.615 2218.73 165.615ZM2218.73 157.538C2228.42 157.538 2236.8 154.538 2243.88 148.538C2250.95 142.538 2256.41 134.077 2260.25 123.154C2264.25 112.077 2266.25 99.1538 2266.25 84.3846C2266.25 70.3846 2264.25 58.0769 2260.25 47.4615C2256.41 36.8461 2250.95 28.5385 2243.88 22.5385C2236.8 16.5385 2228.42 13.5385 2218.73 13.5385C2209.35 13.5385 2201.13 16.5385 2194.05 22.5385C2186.98 28.5385 2181.44 37.0769 2177.44 48.1538C2173.6 59.0769 2171.68 72.0769 2171.68 87.1538C2171.68 97.4615 2172.75 106.923 2174.91 115.538C2177.21 124.154 2180.44 131.615 2184.59 137.923C2188.75 144.231 2193.67 149.077 2199.36 152.462C2205.2 155.846 2211.66 157.538 2218.73 157.538Z"></path> <path d="M2317.67 163.077V158L2329.43 155.462C2334.81 154.231 2338.2 152.846 2339.58 151.308C2341.12 149.769 2341.89 146.615 2341.89 141.846V29C2341.89 24.0769 2341.12 20.8462 2339.58 19.3077C2338.2 17.7692 2334.81 16.4615 2329.43 15.3846L2317.67 12.8462V7.76924H2449.61C2449.15 9.92309 2448.84 12.0769 2448.69 14.2308C2448.53 16.2308 2448.45 18.3077 2448.45 20.4615C2448.45 25.2308 2448.84 29.9231 2449.61 34.5385C2450.38 39 2451.15 43.6923 2451.91 48.6154H2446.84C2444.99 44 2442.69 39.6923 2439.92 35.6923C2437.15 31.6923 2434 28.2308 2430.46 25.3077C2427.08 22.2308 2423.16 19.8462 2418.7 18.1538C2414.39 16.3077 2409.7 15.3846 2404.63 15.3846H2374.18V81.8462H2403.71C2408.93 81.8462 2413.09 81.1538 2416.16 79.7692C2419.24 78.3846 2421.54 76.3846 2423.08 73.7692C2424.77 71.1539 2425.93 68 2426.54 64.3077L2428.39 53.6923H2433.46V117.615H2428.39L2426.31 106.538C2425.7 102.846 2424.54 99.7692 2422.85 97.3077C2421.31 94.6923 2419.01 92.7692 2415.93 91.5385C2413.01 90.1539 2409.09 89.4615 2404.17 89.4615H2374.18V141.846C2374.18 146.615 2374.95 149.846 2376.49 151.538C2378.02 153.077 2381.41 154.385 2386.64 155.462L2400.01 158V163.077H2317.67Z"></path> <path d="M2532.79 163.077V158L2544.55 155.462C2549.94 154.231 2553.32 152.846 2554.7 151.308C2556.24 149.769 2557.01 146.615 2557.01 141.846V29C2557.01 24.0769 2556.24 20.8462 2554.7 19.3077C2553.32 17.7692 2549.94 16.4615 2544.55 15.3846L2532.79 12.8462V7.76924H2618.14C2628.75 7.76924 2637.97 9.30769 2645.82 12.3846C2653.66 15.3077 2659.73 19.4615 2664.04 24.8461C2668.5 30.2308 2670.73 36.5385 2670.73 43.7692C2670.73 53.4616 2667.42 60.9231 2660.81 66.1539C2654.35 71.3846 2645.74 74.7692 2634.98 76.3077V76.7692C2642.51 77.2308 2649.66 79.0769 2656.43 82.3077C2663.19 85.5385 2668.65 90.0769 2672.81 95.9231C2677.11 101.615 2679.26 108.385 2679.26 116.231C2679.26 127.769 2676.27 137 2670.27 143.923C2664.27 150.692 2656.27 155.615 2646.28 158.692C2636.44 161.615 2625.52 163.077 2613.52 163.077H2532.79ZM2602.91 155.462H2609.14C2616.06 155.462 2621.98 153.846 2626.9 150.615C2631.82 147.231 2635.59 142.615 2638.21 136.769C2640.97 130.769 2642.36 123.923 2642.36 116.231C2642.36 108.846 2641.2 102.615 2638.9 97.5385C2636.59 92.3077 2632.9 88.3846 2627.83 85.7692C2622.9 83 2616.37 81.6154 2608.22 81.6154H2589.3V142.769C2589.3 147.846 2590.23 151.231 2592.07 152.923C2594.07 154.615 2597.68 155.462 2602.91 155.462ZM2589.3 74H2609.83C2617.98 74 2624.29 71 2628.75 65C2633.36 59 2635.67 52 2635.67 44C2635.67 35.3846 2632.9 28.4615 2627.36 23.2308C2621.98 18 2614.45 15.3846 2604.76 15.3846H2589.3V74Z"></path> <path d="M2686.06 163.077V158L2699.44 155C2702.82 154.231 2705.36 153.154 2707.05 151.769C2708.89 150.231 2710.36 148.231 2711.43 145.769L2758.49 34.3077L2751.34 16.5385C2756.26 16.3846 2760.41 15.4615 2763.79 13.7692C2767.18 11.9231 2769.71 9.92309 2771.41 7.76924C2773.1 5.46155 2773.94 3.53846 2773.94 2H2777.17L2837.61 148.769C2838.38 150.615 2839.61 152 2841.3 152.923C2842.99 153.846 2845.68 154.692 2849.37 155.462L2861.13 158V163.077H2780.4V158L2792.17 155.462C2795.55 154.692 2798.01 153.769 2799.55 152.692C2801.24 151.462 2802.08 149.846 2802.08 147.846C2802.08 147.077 2801.93 146.308 2801.62 145.538C2801.47 144.769 2801.24 143.923 2800.93 143L2759.87 40.0769H2764.95L2720.2 146C2720.04 146.462 2719.89 146.923 2719.74 147.385C2719.74 147.846 2719.74 148.231 2719.74 148.538C2719.74 149.923 2720.27 151.154 2721.35 152.231C2722.43 153.308 2724.2 154.077 2726.66 154.538L2746.49 158V163.077H2686.06ZM2734.73 110.923V103.308H2800.47V110.923H2734.73Z"></path> <path d="M3025.5 166.538C3019.04 166.538 3012.89 165.385 3007.04 163.077C3001.2 160.769 2995.51 157.077 2989.98 152C2984.44 146.923 2978.9 140.308 2973.37 132.154C2969.52 126.308 2965.6 120.615 2961.6 115.077C2957.6 109.385 2953.15 104.692 2948.22 101C2943.46 97.1538 2937.69 95.2308 2930.92 95.2308H2925.62V141.846C2925.62 146.615 2926.39 149.769 2927.93 151.308C2929.46 152.846 2932.85 154.231 2938.07 155.462L2949.84 158V163.077H2869.11V158L2880.87 155.462C2886.25 154.231 2889.63 152.846 2891.02 151.308C2892.56 149.769 2893.33 146.615 2893.33 141.846V29C2893.33 24.0769 2892.56 20.8462 2891.02 19.3077C2889.63 17.7692 2886.25 16.4615 2880.87 15.3846L2869.11 12.8462V7.76924H2933.69C2956.76 7.76924 2974.75 11.4615 2987.67 18.8462C3000.74 26.2308 3007.28 36.6923 3007.28 50.2308C3007.28 57.3077 3005.05 63.7692 3000.59 69.6154C2996.28 75.3077 2990.51 79.9231 2983.29 83.4615C2976.06 87 2968.14 89.2308 2959.53 90.1539V90.6154C2966.6 90.9231 2972.91 92.8462 2978.44 96.3846C2983.98 99.7692 2988.98 104.154 2993.44 109.538C2998.05 114.769 3002.35 120.385 3006.35 126.385C3010.35 132.077 3014.35 137.385 3018.35 142.308C3022.35 147.231 3026.42 151.231 3030.57 154.308C3034.88 157.231 3039.26 158.692 3043.72 158.692V164.231C3037.57 165.769 3031.5 166.538 3025.5 166.538ZM2925.62 87.6154H2933.69C2941.07 87.6154 2947.84 86.3846 2953.99 83.9231C2960.3 81.3077 2965.29 77.4616 2968.98 72.3846C2972.68 67.1539 2974.52 60.5385 2974.52 52.5385C2974.52 40.3846 2970.68 31.1538 2962.99 24.8461C2955.45 18.5385 2944.69 15.3846 2930.69 15.3846H2925.62V87.6154Z"></path> <path d="M3051.79 163.077V158L3063.56 155.462C3068.94 154.231 3072.32 152.846 3073.71 151.308C3075.24 149.769 3076.01 146.615 3076.01 141.846V29C3076.01 24.0769 3075.24 20.8462 3073.71 19.3077C3072.32 17.7692 3068.94 16.4615 3063.56 15.3846L3051.79 12.8462V7.76924H3137.14C3147.75 7.76924 3156.98 9.30769 3164.82 12.3846C3172.66 15.3077 3178.74 19.4615 3183.04 24.8461C3187.5 30.2308 3189.73 36.5385 3189.73 43.7692C3189.73 53.4616 3186.43 60.9231 3179.81 66.1539C3173.35 71.3846 3164.74 74.7692 3153.98 76.3077V76.7692C3161.51 77.2308 3168.66 79.0769 3175.43 82.3077C3182.2 85.5385 3187.66 90.0769 3191.81 95.9231C3196.11 101.615 3198.27 108.385 3198.27 116.231C3198.27 127.769 3195.27 137 3189.27 143.923C3183.27 150.692 3175.28 155.615 3165.28 158.692C3155.44 161.615 3144.52 163.077 3132.53 163.077H3051.79ZM3121.91 155.462H3128.14C3135.06 155.462 3140.98 153.846 3145.9 150.615C3150.83 147.231 3154.59 142.615 3157.21 136.769C3159.98 130.769 3161.36 123.923 3161.36 116.231C3161.36 108.846 3160.21 102.615 3157.9 97.5385C3155.59 92.3077 3151.9 88.3846 3146.83 85.7692C3141.91 83 3135.37 81.6154 3127.22 81.6154H3108.31V142.769C3108.31 147.846 3109.23 151.231 3111.07 152.923C3113.07 154.615 3116.69 155.462 3121.91 155.462ZM3108.31 74H3128.84C3136.99 74 3143.29 71 3147.75 65C3152.36 59 3154.67 52 3154.67 44C3154.67 35.3846 3151.9 28.4615 3146.37 23.2308C3140.98 18 3133.45 15.3846 3123.76 15.3846H3108.31V74Z"></path> <path d="M3216.68 163.077V158L3228.45 155.462C3233.83 154.231 3237.21 152.846 3238.6 151.308C3240.13 149.769 3240.9 146.615 3240.9 141.846V29C3240.9 24.0769 3240.13 20.8462 3238.6 19.3077C3237.21 17.7692 3233.83 16.4615 3228.45 15.3846L3216.68 12.8462V7.76924H3297.42V12.8462L3285.65 15.3846C3280.42 16.4615 3277.04 17.7692 3275.5 19.3077C3273.97 20.8462 3273.2 24.0769 3273.2 29V141.846C3273.2 146.615 3273.97 149.769 3275.5 151.308C3277.04 152.846 3280.42 154.231 3285.65 155.462L3297.42 158V163.077H3216.68Z"></path> <path d="M3311.29 163.077V158L3323.06 155.462C3328.44 154.231 3331.82 152.846 3333.21 151.308C3334.74 149.769 3335.51 146.615 3335.51 141.846V29C3335.51 24.0769 3334.74 20.8462 3333.21 19.3077C3331.82 17.7692 3328.44 16.4615 3323.06 15.3846L3311.29 12.8462V7.76924H3443.47C3443 9.92309 3442.7 12.0769 3442.54 14.2308C3442.39 16.2308 3442.31 18.3077 3442.31 20.4615C3442.31 25.2308 3442.7 29.9231 3443.47 34.5385C3444.23 39 3445 43.6923 3445.77 48.6154H3440.7C3438.24 42.4616 3435.01 36.9231 3431.01 32C3427.01 26.9231 3422.32 22.9231 3416.94 20C3411.56 16.9231 3405.41 15.3846 3398.49 15.3846H3367.81V77.2308H3397.33C3405.02 77.2308 3410.48 75.6923 3413.71 72.6154C3417.09 69.5385 3419.25 65.2308 3420.17 59.6923L3422.01 49.0769H3427.09V113H3422.01L3419.94 101.923C3419.01 96.5385 3416.94 92.3846 3413.71 89.4615C3410.48 86.3846 3405.17 84.8461 3397.79 84.8461H3367.81V135.615C3367.81 140.077 3368.04 143.846 3368.5 146.923C3368.96 149.846 3370.27 152 3372.42 153.385C3374.73 154.769 3378.49 155.462 3383.72 155.462H3400.79C3406.33 155.462 3411.25 154.692 3415.55 153.154C3419.86 151.462 3423.78 149.154 3427.32 146.231C3430.86 143.154 3434.08 139.538 3437.01 135.385L3446.93 121.538H3452C3450.46 128.308 3449.08 135.154 3447.85 142.077C3446.77 149 3446.23 156 3446.23 163.077H3311.29Z"></path> </mask> <path d="M41.5215 163.077V158L53.2855 155.462C58.6677 154.231 62.0509 152.846 63.4349 151.308C64.9726 149.769 65.7415 146.615 65.7415 141.846V15.3846H48.9028C42.2903 15.3846 36.293 17.1538 30.9108 20.6923C25.5285 24.0769 20.9921 28.6923 17.3014 34.5385C13.6107 40.2308 10.9196 46.4615 9.22802 53.2308H3C3.92267 49.0769 4.69156 44.3846 5.30667 39.1539C6.07557 33.7692 6.5369 28.3846 6.69068 23C6.84446 17.4616 6.5369 12.3846 5.76801 7.76924H158.008C157.24 12.3846 156.932 17.4616 157.086 23C157.24 28.3846 157.701 33.7692 158.47 39.1539C159.239 44.3846 160.008 49.0769 160.776 53.2308H154.548C152.857 46.4615 150.166 40.2308 146.475 34.5385C142.784 28.6923 138.248 24.0769 132.866 20.6923C127.637 17.1538 121.64 15.3846 114.874 15.3846H98.035V141.846C98.035 146.615 98.8039 149.769 100.342 151.308C101.879 152.846 105.263 154.231 110.491 155.462L122.255 158V163.077H41.5215Z" fill="#F534AC"></path> <path d="M277.518 163.077V158L289.282 155.462C294.664 154.231 298.047 152.846 299.431 151.308C300.969 149.769 301.738 146.615 301.738 141.846V29C301.738 24.0769 300.969 20.8462 299.431 19.3077C298.047 17.7692 294.664 16.4615 289.282 15.3846L277.518 12.8462V7.76924H358.251V12.8462L346.487 15.3846C341.259 16.4615 337.876 17.7692 336.338 19.3077C334.8 20.8462 334.031 24.0769 334.031 29V141.846C334.031 146.615 334.8 149.769 336.338 151.308C337.876 152.846 341.259 154.231 346.487 155.462L358.251 158V163.077H277.518ZM170.027 163.077V158L181.791 155.462C187.173 154.231 190.556 152.846 191.94 151.308C193.478 149.769 194.247 146.615 194.247 141.846V29C194.247 24.0769 193.478 20.8462 191.94 19.3077C190.556 17.7692 187.173 16.4615 181.791 15.3846L170.027 12.8462V7.76924H250.76V12.8462L238.996 15.3846C233.768 16.4615 230.385 17.7692 228.847 19.3077C227.309 20.8462 226.54 24.0769 226.54 29V141.846C226.54 146.615 227.309 149.769 228.847 151.308C230.385 152.846 233.768 154.231 238.996 155.462L250.76 158V163.077H170.027ZM222.388 84.3846V76.7692H310.964V84.3846H222.388Z" fill="#F534AC"></path> <path d="M372.086 163.077V158L383.85 155.462C389.232 154.231 392.615 152.846 393.999 151.308C395.537 149.769 396.306 146.615 396.306 141.846V29C396.306 24.0769 395.537 20.8462 393.999 19.3077C392.615 17.7692 389.232 16.4615 383.85 15.3846L372.086 12.8462V7.76924H504.258C503.797 9.92309 503.489 12.0769 503.336 14.2308C503.182 16.2308 503.105 18.3077 503.105 20.4615C503.105 25.2308 503.489 29.9231 504.258 34.5385C505.027 39 505.796 43.6923 506.565 48.6154H501.49C499.03 42.4616 495.8 36.9231 491.802 32C487.804 26.9231 483.114 22.9231 477.731 20C472.349 16.9231 466.198 15.3846 459.278 15.3846H428.599V77.2308H458.125C465.814 77.2308 471.273 75.6923 474.502 72.6154C477.885 69.5385 480.038 65.2308 480.961 59.6923L482.806 49.0769H487.881V113H482.806L480.73 101.923C479.808 96.5385 477.732 92.3846 474.502 89.4615C471.273 86.3846 465.967 84.8461 458.586 84.8461H428.599V135.615C428.599 140.077 428.83 143.846 429.291 146.923C429.753 149.846 431.06 152 433.213 153.385C435.519 154.769 439.287 155.462 444.515 155.462H461.585C467.121 155.462 472.042 154.692 476.347 153.154C480.653 151.462 484.575 149.154 488.112 146.231C491.648 143.154 494.878 139.538 497.8 135.385L507.718 121.538H512.793C511.255 128.308 509.871 135.154 508.641 142.077C507.564 149 507.026 156 507.026 163.077H372.086Z" fill="#F534AC"></path> <path d="M592.391 163.077V158L604.155 155.462C609.537 154.231 612.921 152.846 614.305 151.308C615.842 149.769 616.611 146.615 616.611 141.846V29C616.611 24.0769 615.842 20.8462 614.305 19.3077C612.921 17.7692 609.537 16.4615 604.155 15.3846L592.391 12.8462V7.76924H724.564C724.102 9.92309 723.795 12.0769 723.641 14.2308C723.487 16.2308 723.41 18.3077 723.41 20.4615C723.41 25.2308 723.795 29.9231 724.564 34.5385C725.333 39 726.101 43.6923 726.87 48.6154H721.796C719.335 42.4616 716.106 36.9231 712.108 32C708.109 26.9231 703.419 22.9231 698.037 20C692.655 16.9231 686.504 15.3846 679.583 15.3846H648.905V77.2308H678.43C686.119 77.2308 691.578 75.6923 694.808 72.6154C698.191 69.5385 700.344 65.2308 701.266 59.6923L703.112 49.0769H708.186V113H703.112L701.036 101.923C700.113 96.5385 698.037 92.3846 694.808 89.4615C691.578 86.3846 686.273 84.8461 678.891 84.8461H648.905V135.615C648.905 140.077 649.135 143.846 649.597 146.923C650.058 149.846 651.365 152 653.518 153.385C655.825 154.769 659.592 155.462 664.821 155.462H681.89C687.426 155.462 692.347 154.692 696.653 153.154C700.959 151.462 704.88 149.154 708.417 146.231C711.954 143.154 715.183 139.538 718.105 135.385L728.024 121.538H733.098C731.561 128.308 730.177 135.154 728.946 142.077C727.87 149 727.332 156 727.332 163.077H592.391Z" fill="#F534AC"></path> <path d="M823.502 166.538L762.375 21.3846C761.76 19.6923 760.607 18.3846 758.915 17.4615C757.377 16.5385 755.686 15.9231 753.84 15.6154L741.154 12.8462V7.76924H824.194V12.8462L812.43 15.3846C808.585 16.1539 805.741 17.2308 803.895 18.6154C802.05 19.8461 801.127 21.5385 801.127 23.6923C801.127 24.3077 801.204 25.0769 801.358 26C801.665 26.9231 801.973 27.8462 802.281 28.7692L843.57 135.154H837.342L880.938 28.0769C881.246 27.3077 881.476 26.6154 881.63 26C881.784 25.3846 881.861 24.7692 881.861 24.1539C881.861 22.1539 881.015 20.6154 879.323 19.5385C877.632 18.3077 875.095 17.3846 871.711 16.7692L854.411 12.8462V7.76924H918.767V12.8462L904.236 15.8462C901.314 16.4615 898.853 17.3846 896.854 18.6154C894.855 19.6923 893.317 21.5385 892.241 24.1539L834.574 166.538H823.502Z" fill="#F534AC"></path> <path d="M1001.2 165.615C989.202 165.615 978.207 163.615 968.211 159.615C958.216 155.462 949.527 149.846 942.146 142.769C934.765 135.538 928.998 127.154 924.846 117.615C920.848 108.077 918.849 97.9231 918.849 87.1538C918.849 75.4615 920.848 64.6923 924.846 54.8462C928.998 44.8462 934.765 36.1539 942.146 28.7692C949.527 21.3846 958.216 15.6923 968.211 11.6923C978.207 7.53847 989.202 5.46154 1001.2 5.46154C1013.19 5.46154 1024.26 7.53847 1034.41 11.6923C1044.56 15.6923 1053.33 21.3077 1060.71 28.5385C1068.09 35.7692 1073.78 44.1538 1077.78 53.6923C1081.93 63.0769 1084.01 73.2308 1084.01 84.1539C1084.01 95.8462 1081.93 106.615 1077.78 116.462C1073.78 126.308 1068.09 134.923 1060.71 142.308C1053.33 149.692 1044.56 155.462 1034.41 159.615C1024.26 163.615 1013.19 165.615 1001.2 165.615ZM1001.2 157.538C1010.88 157.538 1019.27 154.538 1026.34 148.538C1033.41 142.538 1038.87 134.077 1042.72 123.154C1046.72 112.077 1048.71 99.1538 1048.71 84.3846C1048.71 70.3846 1046.72 58.0769 1042.72 47.4615C1038.87 36.8461 1033.41 28.5385 1026.34 22.5385C1019.27 16.5385 1010.88 13.5385 1001.2 13.5385C991.816 13.5385 983.589 16.5385 976.515 22.5385C969.442 28.5385 963.906 37.0769 959.907 48.1538C956.063 59.0769 954.141 72.0769 954.141 87.1538C954.141 97.4615 955.217 106.923 957.37 115.538C959.677 124.154 962.906 131.615 967.058 137.923C971.21 144.231 976.131 149.077 981.821 152.462C987.664 155.846 994.123 157.538 1001.2 157.538Z" fill="#F534AC"></path> <path d="M1100.13 163.077V158L1111.89 155.462C1117.28 154.231 1120.66 152.846 1122.04 151.308C1123.58 149.769 1124.35 146.615 1124.35 141.846V29C1124.35 24.0769 1123.58 20.8462 1122.04 19.3077C1120.66 17.7692 1117.28 16.4615 1111.89 15.3846L1100.13 12.8462V7.76924H1180.86V12.8462L1169.1 15.3846C1163.87 16.4615 1160.49 17.7692 1158.95 19.3077C1157.41 20.8462 1156.64 24.0769 1156.64 29V141.846C1156.64 146 1157.72 149.308 1159.87 151.769C1162.18 154.231 1166.41 155.462 1172.56 155.462H1201.62C1207.47 155.462 1212.62 154.769 1217.08 153.385C1221.54 151.846 1225.46 149.615 1228.84 146.692C1232.23 143.615 1235.22 139.846 1237.84 135.385L1248.68 117.615H1253.75C1252.22 124.385 1250.68 131.923 1249.14 140.231C1247.76 148.385 1247.06 156 1247.06 163.077H1100.13Z" fill="#F534AC"></path> <path d="M1338.96 165.615C1331.58 165.615 1324.36 164.385 1317.28 161.923C1310.36 159.308 1304.06 155.692 1298.37 151.077C1292.83 146.462 1288.45 141 1285.22 134.692C1281.99 128.231 1280.37 121.154 1280.37 113.462V29C1280.37 24.0769 1279.61 20.8462 1278.07 19.3077C1276.68 17.7692 1273.3 16.4615 1267.92 15.3846L1256.15 12.8462V7.76924H1336.89V12.8462L1325.12 15.3846C1319.9 16.4615 1316.51 17.7692 1314.97 19.3077C1313.44 20.8462 1312.67 24.0769 1312.67 29V112.308C1312.67 123.846 1315.97 133 1322.59 139.769C1329.2 146.538 1339.04 149.923 1352.11 149.923C1359.65 149.923 1366.26 148.385 1371.95 145.308C1377.64 142.077 1382.1 137.692 1385.33 132.154C1388.71 126.615 1390.4 120.308 1390.4 113.231V29C1390.4 25.1539 1389.33 22.3077 1387.17 20.4615C1385.17 18.4615 1382.1 17.0769 1377.95 16.3077L1361.11 12.8462V7.76924H1424.54V12.8462L1411.16 15.8462C1407.01 16.7692 1403.86 18.1539 1401.71 20C1399.71 21.8462 1398.71 24.8462 1398.71 29V137.923C1396.25 137.923 1394.02 138.923 1392.02 140.923C1390.17 142.769 1387.94 145 1385.33 147.615C1382.87 150.231 1379.79 152.923 1376.1 155.692C1372.56 158.462 1367.8 160.846 1361.8 162.846C1355.96 164.692 1348.34 165.615 1338.96 165.615Z" fill="#F534AC"></path> <path d="M1469.9 163.077V158L1481.67 155.462C1487.05 154.231 1490.43 152.846 1491.82 151.308C1493.35 149.769 1494.12 146.615 1494.12 141.846V15.3846H1477.28C1470.67 15.3846 1464.67 17.1538 1459.29 20.6923C1453.91 24.0769 1449.37 28.6923 1445.68 34.5385C1441.99 40.2308 1439.3 46.4615 1437.61 53.2308H1431.38C1432.3 49.0769 1433.07 44.3846 1433.69 39.1539C1434.46 33.7692 1434.92 28.3846 1435.07 23C1435.23 17.4616 1434.92 12.3846 1434.15 7.76924H1586.39C1585.62 12.3846 1585.31 17.4616 1585.47 23C1585.62 28.3846 1586.08 33.7692 1586.85 39.1539C1587.62 44.3846 1588.39 49.0769 1589.16 53.2308H1582.93C1581.24 46.4615 1578.55 40.2308 1574.86 34.5385C1571.17 28.6923 1566.63 24.0769 1561.25 20.6923C1556.02 17.1538 1550.02 15.3846 1543.25 15.3846H1526.42V141.846C1526.42 146.615 1527.18 149.769 1528.72 151.308C1530.26 152.846 1533.64 154.231 1538.87 155.462L1550.64 158V163.077H1469.9Z" fill="#F534AC"></path> <path d="M1598.41 163.077V158L1610.17 155.462C1615.55 154.231 1618.94 152.846 1620.32 151.308C1621.86 149.769 1622.63 146.615 1622.63 141.846V29C1622.63 24.0769 1621.86 20.8462 1620.32 19.3077C1618.94 17.7692 1615.55 16.4615 1610.17 15.3846L1598.41 12.8462V7.76924H1679.14V12.8462L1667.38 15.3846C1662.15 16.4615 1658.77 17.7692 1657.23 19.3077C1655.69 20.8462 1654.92 24.0769 1654.92 29V141.846C1654.92 146.615 1655.69 149.769 1657.23 151.308C1658.77 152.846 1662.15 154.231 1667.38 155.462L1679.14 158V163.077H1598.41Z" fill="#F534AC"></path> <path d="M1777.67 165.615C1765.68 165.615 1754.68 163.615 1744.69 159.615C1734.69 155.462 1726 149.846 1718.62 142.769C1711.24 135.538 1705.47 127.154 1701.32 117.615C1697.32 108.077 1695.32 97.9231 1695.32 87.1538C1695.32 75.4615 1697.32 64.6923 1701.32 54.8462C1705.47 44.8462 1711.24 36.1539 1718.62 28.7692C1726 21.3846 1734.69 15.6923 1744.69 11.6923C1754.68 7.53847 1765.68 5.46154 1777.67 5.46154C1789.67 5.46154 1800.74 7.53847 1810.89 11.6923C1821.04 15.6923 1829.8 21.3077 1837.18 28.5385C1844.57 35.7692 1850.26 44.1538 1854.25 53.6923C1858.41 63.0769 1860.48 73.2308 1860.48 84.1539C1860.48 95.8462 1858.41 106.615 1854.25 116.462C1850.26 126.308 1844.57 134.923 1837.18 142.308C1829.8 149.692 1821.04 155.462 1810.89 159.615C1800.74 163.615 1789.67 165.615 1777.67 165.615ZM1777.67 157.538C1787.36 157.538 1795.74 154.538 1802.81 148.538C1809.89 142.538 1815.35 134.077 1819.19 123.154C1823.19 112.077 1825.19 99.1538 1825.19 84.3846C1825.19 70.3846 1823.19 58.0769 1819.19 47.4615C1815.35 36.8461 1809.89 28.5385 1802.81 22.5385C1795.74 16.5385 1787.36 13.5385 1777.67 13.5385C1768.29 13.5385 1760.06 16.5385 1752.99 22.5385C1745.92 28.5385 1740.38 37.0769 1736.38 48.1538C1732.54 59.0769 1730.62 72.0769 1730.62 87.1538C1730.62 97.4615 1731.69 106.923 1733.85 115.538C1736.15 124.154 1739.38 131.615 1743.53 137.923C1747.69 144.231 1752.61 149.077 1758.3 152.462C1764.14 155.846 1770.6 157.538 1777.67 157.538Z" fill="#F534AC"></path> <path d="M2028.15 167L1910.74 37.0769V141.846C1910.74 145.692 1911.74 148.615 1913.74 150.615C1915.9 152.462 1919.05 153.769 1923.2 154.538L1940.04 158V163.077H1876.6V158L1889.98 155C1894.14 154.077 1897.21 152.692 1899.21 150.846C1901.36 149 1902.44 146 1902.44 141.846V29C1902.44 25.7692 1902.13 23.3077 1901.52 21.6154C1900.9 19.9231 1899.67 18.6923 1897.83 17.9231C1896.13 17 1893.52 16.1539 1889.98 15.3846L1878.22 12.8462V7.76924H1927.12L2023.77 114.385V29C2023.77 25.1539 2022.69 22.3077 2020.54 20.4615C2018.54 18.4615 2015.47 17.0769 2011.31 16.3077L1994.48 12.8462V7.76924H2057.91V12.8462L2044.53 15.8462C2040.38 16.7692 2037.23 18.1539 2035.07 20C2033.07 21.8462 2032.07 24.8462 2032.07 29V167H2028.15Z" fill="#F534AC"></path> <path d="M2218.73 165.615C2206.74 165.615 2195.74 163.615 2185.75 159.615C2175.75 155.462 2167.06 149.846 2159.68 142.769C2152.3 135.538 2146.53 127.154 2142.38 117.615C2138.38 108.077 2136.39 97.9231 2136.39 87.1538C2136.39 75.4615 2138.38 64.6923 2142.38 54.8462C2146.53 44.8462 2152.3 36.1539 2159.68 28.7692C2167.06 21.3846 2175.75 15.6923 2185.75 11.6923C2195.74 7.53847 2206.74 5.46154 2218.73 5.46154C2230.73 5.46154 2241.8 7.53847 2251.95 11.6923C2262.1 15.6923 2270.86 21.3077 2278.25 28.5385C2285.63 35.7692 2291.32 44.1538 2295.31 53.6923C2299.47 63.0769 2301.54 73.2308 2301.54 84.1539C2301.54 95.8462 2299.47 106.615 2295.31 116.462C2291.32 126.308 2285.63 134.923 2278.25 142.308C2270.86 149.692 2262.1 155.462 2251.95 159.615C2241.8 163.615 2230.73 165.615 2218.73 165.615ZM2218.73 157.538C2228.42 157.538 2236.8 154.538 2243.88 148.538C2250.95 142.538 2256.41 134.077 2260.25 123.154C2264.25 112.077 2266.25 99.1538 2266.25 84.3846C2266.25 70.3846 2264.25 58.0769 2260.25 47.4615C2256.41 36.8461 2250.95 28.5385 2243.88 22.5385C2236.8 16.5385 2228.42 13.5385 2218.73 13.5385C2209.35 13.5385 2201.13 16.5385 2194.05 22.5385C2186.98 28.5385 2181.44 37.0769 2177.44 48.1538C2173.6 59.0769 2171.68 72.0769 2171.68 87.1538C2171.68 97.4615 2172.75 106.923 2174.91 115.538C2177.21 124.154 2180.44 131.615 2184.59 137.923C2188.75 144.231 2193.67 149.077 2199.36 152.462C2205.2 155.846 2211.66 157.538 2218.73 157.538Z" fill="#F534AC"></path> <path d="M2317.67 163.077V158L2329.43 155.462C2334.81 154.231 2338.2 152.846 2339.58 151.308C2341.12 149.769 2341.89 146.615 2341.89 141.846V29C2341.89 24.0769 2341.12 20.8462 2339.58 19.3077C2338.2 17.7692 2334.81 16.4615 2329.43 15.3846L2317.67 12.8462V7.76924H2449.61C2449.15 9.92309 2448.84 12.0769 2448.69 14.2308C2448.53 16.2308 2448.45 18.3077 2448.45 20.4615C2448.45 25.2308 2448.84 29.9231 2449.61 34.5385C2450.38 39 2451.15 43.6923 2451.91 48.6154H2446.84C2444.99 44 2442.69 39.6923 2439.92 35.6923C2437.15 31.6923 2434 28.2308 2430.46 25.3077C2427.08 22.2308 2423.16 19.8462 2418.7 18.1538C2414.39 16.3077 2409.7 15.3846 2404.63 15.3846H2374.18V81.8462H2403.71C2408.93 81.8462 2413.09 81.1538 2416.16 79.7692C2419.24 78.3846 2421.54 76.3846 2423.08 73.7692C2424.77 71.1539 2425.93 68 2426.54 64.3077L2428.39 53.6923H2433.46V117.615H2428.39L2426.31 106.538C2425.7 102.846 2424.54 99.7692 2422.85 97.3077C2421.31 94.6923 2419.01 92.7692 2415.93 91.5385C2413.01 90.1539 2409.09 89.4615 2404.17 89.4615H2374.18V141.846C2374.18 146.615 2374.95 149.846 2376.49 151.538C2378.02 153.077 2381.41 154.385 2386.64 155.462L2400.01 158V163.077H2317.67Z" fill="#F534AC"></path> <path d="M2532.79 163.077V158L2544.55 155.462C2549.94 154.231 2553.32 152.846 2554.7 151.308C2556.24 149.769 2557.01 146.615 2557.01 141.846V29C2557.01 24.0769 2556.24 20.8462 2554.7 19.3077C2553.32 17.7692 2549.94 16.4615 2544.55 15.3846L2532.79 12.8462V7.76924H2618.14C2628.75 7.76924 2637.97 9.30769 2645.82 12.3846C2653.66 15.3077 2659.73 19.4615 2664.04 24.8461C2668.5 30.2308 2670.73 36.5385 2670.73 43.7692C2670.73 53.4616 2667.42 60.9231 2660.81 66.1539C2654.35 71.3846 2645.74 74.7692 2634.98 76.3077V76.7692C2642.51 77.2308 2649.66 79.0769 2656.43 82.3077C2663.19 85.5385 2668.65 90.0769 2672.81 95.9231C2677.11 101.615 2679.26 108.385 2679.26 116.231C2679.26 127.769 2676.27 137 2670.27 143.923C2664.27 150.692 2656.27 155.615 2646.28 158.692C2636.44 161.615 2625.52 163.077 2613.52 163.077H2532.79ZM2602.91 155.462H2609.14C2616.06 155.462 2621.98 153.846 2626.9 150.615C2631.82 147.231 2635.59 142.615 2638.21 136.769C2640.97 130.769 2642.36 123.923 2642.36 116.231C2642.36 108.846 2641.2 102.615 2638.9 97.5385C2636.59 92.3077 2632.9 88.3846 2627.83 85.7692C2622.9 83 2616.37 81.6154 2608.22 81.6154H2589.3V142.769C2589.3 147.846 2590.23 151.231 2592.07 152.923C2594.07 154.615 2597.68 155.462 2602.91 155.462ZM2589.3 74H2609.83C2617.98 74 2624.29 71 2628.75 65C2633.36 59 2635.67 52 2635.67 44C2635.67 35.3846 2632.9 28.4615 2627.36 23.2308C2621.98 18 2614.45 15.3846 2604.76 15.3846H2589.3V74Z" fill="#F534AC"></path> <path d="M2686.06 163.077V158L2699.44 155C2702.82 154.231 2705.36 153.154 2707.05 151.769C2708.89 150.231 2710.36 148.231 2711.43 145.769L2758.49 34.3077L2751.34 16.5385C2756.26 16.3846 2760.41 15.4615 2763.79 13.7692C2767.18 11.9231 2769.71 9.92309 2771.41 7.76924C2773.1 5.46155 2773.94 3.53846 2773.94 2H2777.17L2837.61 148.769C2838.38 150.615 2839.61 152 2841.3 152.923C2842.99 153.846 2845.68 154.692 2849.37 155.462L2861.13 158V163.077H2780.4V158L2792.17 155.462C2795.55 154.692 2798.01 153.769 2799.55 152.692C2801.24 151.462 2802.08 149.846 2802.08 147.846C2802.08 147.077 2801.93 146.308 2801.62 145.538C2801.47 144.769 2801.24 143.923 2800.93 143L2759.87 40.0769H2764.95L2720.2 146C2720.04 146.462 2719.89 146.923 2719.74 147.385C2719.74 147.846 2719.74 148.231 2719.74 148.538C2719.74 149.923 2720.27 151.154 2721.35 152.231C2722.43 153.308 2724.2 154.077 2726.66 154.538L2746.49 158V163.077H2686.06ZM2734.73 110.923V103.308H2800.47V110.923H2734.73Z" fill="#F534AC"></path> <path d="M3025.5 166.538C3019.04 166.538 3012.89 165.385 3007.04 163.077C3001.2 160.769 2995.51 157.077 2989.98 152C2984.44 146.923 2978.9 140.308 2973.37 132.154C2969.52 126.308 2965.6 120.615 2961.6 115.077C2957.6 109.385 2953.15 104.692 2948.22 101C2943.46 97.1538 2937.69 95.2308 2930.92 95.2308H2925.62V141.846C2925.62 146.615 2926.39 149.769 2927.93 151.308C2929.46 152.846 2932.85 154.231 2938.07 155.462L2949.84 158V163.077H2869.11V158L2880.87 155.462C2886.25 154.231 2889.63 152.846 2891.02 151.308C2892.56 149.769 2893.33 146.615 2893.33 141.846V29C2893.33 24.0769 2892.56 20.8462 2891.02 19.3077C2889.63 17.7692 2886.25 16.4615 2880.87 15.3846L2869.11 12.8462V7.76924H2933.69C2956.76 7.76924 2974.75 11.4615 2987.67 18.8462C3000.74 26.2308 3007.28 36.6923 3007.28 50.2308C3007.28 57.3077 3005.05 63.7692 3000.59 69.6154C2996.28 75.3077 2990.51 79.9231 2983.29 83.4615C2976.06 87 2968.14 89.2308 2959.53 90.1539V90.6154C2966.6 90.9231 2972.91 92.8462 2978.44 96.3846C2983.98 99.7692 2988.98 104.154 2993.44 109.538C2998.05 114.769 3002.35 120.385 3006.35 126.385C3010.35 132.077 3014.35 137.385 3018.35 142.308C3022.35 147.231 3026.42 151.231 3030.57 154.308C3034.88 157.231 3039.26 158.692 3043.72 158.692V164.231C3037.57 165.769 3031.5 166.538 3025.5 166.538ZM2925.62 87.6154H2933.69C2941.07 87.6154 2947.84 86.3846 2953.99 83.9231C2960.3 81.3077 2965.29 77.4616 2968.98 72.3846C2972.68 67.1539 2974.52 60.5385 2974.52 52.5385C2974.52 40.3846 2970.68 31.1538 2962.99 24.8461C2955.45 18.5385 2944.69 15.3846 2930.69 15.3846H2925.62V87.6154Z" fill="#F534AC"></path> <path d="M3051.79 163.077V158L3063.56 155.462C3068.94 154.231 3072.32 152.846 3073.71 151.308C3075.24 149.769 3076.01 146.615 3076.01 141.846V29C3076.01 24.0769 3075.24 20.8462 3073.71 19.3077C3072.32 17.7692 3068.94 16.4615 3063.56 15.3846L3051.79 12.8462V7.76924H3137.14C3147.75 7.76924 3156.98 9.30769 3164.82 12.3846C3172.66 15.3077 3178.74 19.4615 3183.04 24.8461C3187.5 30.2308 3189.73 36.5385 3189.73 43.7692C3189.73 53.4616 3186.43 60.9231 3179.81 66.1539C3173.35 71.3846 3164.74 74.7692 3153.98 76.3077V76.7692C3161.51 77.2308 3168.66 79.0769 3175.43 82.3077C3182.2 85.5385 3187.66 90.0769 3191.81 95.9231C3196.11 101.615 3198.27 108.385 3198.27 116.231C3198.27 127.769 3195.27 137 3189.27 143.923C3183.27 150.692 3175.28 155.615 3165.28 158.692C3155.44 161.615 3144.52 163.077 3132.53 163.077H3051.79ZM3121.91 155.462H3128.14C3135.06 155.462 3140.98 153.846 3145.9 150.615C3150.83 147.231 3154.59 142.615 3157.21 136.769C3159.98 130.769 3161.36 123.923 3161.36 116.231C3161.36 108.846 3160.21 102.615 3157.9 97.5385C3155.59 92.3077 3151.9 88.3846 3146.83 85.7692C3141.91 83 3135.37 81.6154 3127.22 81.6154H3108.31V142.769C3108.31 147.846 3109.23 151.231 3111.07 152.923C3113.07 154.615 3116.69 155.462 3121.91 155.462ZM3108.31 74H3128.84C3136.99 74 3143.29 71 3147.75 65C3152.36 59 3154.67 52 3154.67 44C3154.67 35.3846 3151.9 28.4615 3146.37 23.2308C3140.98 18 3133.45 15.3846 3123.76 15.3846H3108.31V74Z" fill="#F534AC"></path> <path d="M3216.68 163.077V158L3228.45 155.462C3233.83 154.231 3237.21 152.846 3238.6 151.308C3240.13 149.769 3240.9 146.615 3240.9 141.846V29C3240.9 24.0769 3240.13 20.8462 3238.6 19.3077C3237.21 17.7692 3233.83 16.4615 3228.45 15.3846L3216.68 12.8462V7.76924H3297.42V12.8462L3285.65 15.3846C3280.42 16.4615 3277.04 17.7692 3275.5 19.3077C3273.97 20.8462 3273.2 24.0769 3273.2 29V141.846C3273.2 146.615 3273.97 149.769 3275.5 151.308C3277.04 152.846 3280.42 154.231 3285.65 155.462L3297.42 158V163.077H3216.68Z" fill="#F534AC"></path> <path d="M3311.29 163.077V158L3323.06 155.462C3328.44 154.231 3331.82 152.846 3333.21 151.308C3334.74 149.769 3335.51 146.615 3335.51 141.846V29C3335.51 24.0769 3334.74 20.8462 3333.21 19.3077C3331.82 17.7692 3328.44 16.4615 3323.06 15.3846L3311.29 12.8462V7.76924H3443.47C3443 9.92309 3442.7 12.0769 3442.54 14.2308C3442.39 16.2308 3442.31 18.3077 3442.31 20.4615C3442.31 25.2308 3442.7 29.9231 3443.47 34.5385C3444.23 39 3445 43.6923 3445.77 48.6154H3440.7C3438.24 42.4616 3435.01 36.9231 3431.01 32C3427.01 26.9231 3422.32 22.9231 3416.94 20C3411.56 16.9231 3405.41 15.3846 3398.49 15.3846H3367.81V77.2308H3397.33C3405.02 77.2308 3410.48 75.6923 3413.71 72.6154C3417.09 69.5385 3419.25 65.2308 3420.17 59.6923L3422.01 49.0769H3427.09V113H3422.01L3419.94 101.923C3419.01 96.5385 3416.94 92.3846 3413.71 89.4615C3410.48 86.3846 3405.17 84.8461 3397.79 84.8461H3367.81V135.615C3367.81 140.077 3368.04 143.846 3368.5 146.923C3368.96 149.846 3370.27 152 3372.42 153.385C3374.73 154.769 3378.49 155.462 3383.72 155.462H3400.79C3406.33 155.462 3411.25 154.692 3415.55 153.154C3419.86 151.462 3423.78 149.154 3427.32 146.231C3430.86 143.154 3434.08 139.538 3437.01 135.385L3446.93 121.538H3452C3450.46 128.308 3449.08 135.154 3447.85 142.077C3446.77 149 3446.23 156 3446.23 163.077H3311.29Z" fill="#F534AC"></path> <path d="M41.5215 163.077V158L53.2855 155.462C58.6677 154.231 62.0509 152.846 63.4349 151.308C64.9726 149.769 65.7415 146.615 65.7415 141.846V15.3846H48.9028C42.2903 15.3846 36.293 17.1538 30.9108 20.6923C25.5285 24.0769 20.9921 28.6923 17.3014 34.5385C13.6107 40.2308 10.9196 46.4615 9.22802 53.2308H3C3.92267 49.0769 4.69156 44.3846 5.30667 39.1539C6.07557 33.7692 6.5369 28.3846 6.69068 23C6.84446 17.4616 6.5369 12.3846 5.76801 7.76924H158.008C157.24 12.3846 156.932 17.4616 157.086 23C157.24 28.3846 157.701 33.7692 158.47 39.1539C159.239 44.3846 160.008 49.0769 160.776 53.2308H154.548C152.857 46.4615 150.166 40.2308 146.475 34.5385C142.784 28.6923 138.248 24.0769 132.866 20.6923C127.637 17.1538 121.64 15.3846 114.874 15.3846H98.035V141.846C98.035 146.615 98.8039 149.769 100.342 151.308C101.879 152.846 105.263 154.231 110.491 155.462L122.255 158V163.077H41.5215Z" stroke="#565555" stroke-width="4" mask="url(#path-1-outside-1_28_953)"></path> <path d="M277.518 163.077V158L289.282 155.462C294.664 154.231 298.047 152.846 299.431 151.308C300.969 149.769 301.738 146.615 301.738 141.846V29C301.738 24.0769 300.969 20.8462 299.431 19.3077C298.047 17.7692 294.664 16.4615 289.282 15.3846L277.518 12.8462V7.76924H358.251V12.8462L346.487 15.3846C341.259 16.4615 337.876 17.7692 336.338 19.3077C334.8 20.8462 334.031 24.0769 334.031 29V141.846C334.031 146.615 334.8 149.769 336.338 151.308C337.876 152.846 341.259 154.231 346.487 155.462L358.251 158V163.077H277.518ZM170.027 163.077V158L181.791 155.462C187.173 154.231 190.556 152.846 191.94 151.308C193.478 149.769 194.247 146.615 194.247 141.846V29C194.247 24.0769 193.478 20.8462 191.94 19.3077C190.556 17.7692 187.173 16.4615 181.791 15.3846L170.027 12.8462V7.76924H250.76V12.8462L238.996 15.3846C233.768 16.4615 230.385 17.7692 228.847 19.3077C227.309 20.8462 226.54 24.0769 226.54 29V141.846C226.54 146.615 227.309 149.769 228.847 151.308C230.385 152.846 233.768 154.231 238.996 155.462L250.76 158V163.077H170.027ZM222.388 84.3846V76.7692H310.964V84.3846H222.388Z" stroke="#565555" stroke-width="4" mask="url(#path-1-outside-1_28_953)"></path> <path d="M372.086 163.077V158L383.85 155.462C389.232 154.231 392.615 152.846 393.999 151.308C395.537 149.769 396.306 146.615 396.306 141.846V29C396.306 24.0769 395.537 20.8462 393.999 19.3077C392.615 17.7692 389.232 16.4615 383.85 15.3846L372.086 12.8462V7.76924H504.258C503.797 9.92309 503.489 12.0769 503.336 14.2308C503.182 16.2308 503.105 18.3077 503.105 20.4615C503.105 25.2308 503.489 29.9231 504.258 34.5385C505.027 39 505.796 43.6923 506.565 48.6154H501.49C499.03 42.4616 495.8 36.9231 491.802 32C487.804 26.9231 483.114 22.9231 477.731 20C472.349 16.9231 466.198 15.3846 459.278 15.3846H428.599V77.2308H458.125C465.814 77.2308 471.273 75.6923 474.502 72.6154C477.885 69.5385 480.038 65.2308 480.961 59.6923L482.806 49.0769H487.881V113H482.806L480.73 101.923C479.808 96.5385 477.732 92.3846 474.502 89.4615C471.273 86.3846 465.967 84.8461 458.586 84.8461H428.599V135.615C428.599 140.077 428.83 143.846 429.291 146.923C429.753 149.846 431.06 152 433.213 153.385C435.519 154.769 439.287 155.462 444.515 155.462H461.585C467.121 155.462 472.042 154.692 476.347 153.154C480.653 151.462 484.575 149.154 488.112 146.231C491.648 143.154 494.878 139.538 497.8 135.385L507.718 121.538H512.793C511.255 128.308 509.871 135.154 508.641 142.077C507.564 149 507.026 156 507.026 163.077H372.086Z" stroke="#565555" stroke-width="4" mask="url(#path-1-outside-1_28_953)"></path> <path d="M592.391 163.077V158L604.155 155.462C609.537 154.231 612.921 152.846 614.305 151.308C615.842 149.769 616.611 146.615 616.611 141.846V29C616.611 24.0769 615.842 20.8462 614.305 19.3077C612.921 17.7692 609.537 16.4615 604.155 15.3846L592.391 12.8462V7.76924H724.564C724.102 9.92309 723.795 12.0769 723.641 14.2308C723.487 16.2308 723.41 18.3077 723.41 20.4615C723.41 25.2308 723.795 29.9231 724.564 34.5385C725.333 39 726.101 43.6923 726.87 48.6154H721.796C719.335 42.4616 716.106 36.9231 712.108 32C708.109 26.9231 703.419 22.9231 698.037 20C692.655 16.9231 686.504 15.3846 679.583 15.3846H648.905V77.2308H678.43C686.119 77.2308 691.578 75.6923 694.808 72.6154C698.191 69.5385 700.344 65.2308 701.266 59.6923L703.112 49.0769H708.186V113H703.112L701.036 101.923C700.113 96.5385 698.037 92.3846 694.808 89.4615C691.578 86.3846 686.273 84.8461 678.891 84.8461H648.905V135.615C648.905 140.077 649.135 143.846 649.597 146.923C650.058 149.846 651.365 152 653.518 153.385C655.825 154.769 659.592 155.462 664.821 155.462H681.89C687.426 155.462 692.347 154.692 696.653 153.154C700.959 151.462 704.88 149.154 708.417 146.231C711.954 143.154 715.183 139.538 718.105 135.385L728.024 121.538H733.098C731.561 128.308 730.177 135.154 728.946 142.077C727.87 149 727.332 156 727.332 163.077H592.391Z" stroke="#565555" stroke-width="4" mask="url(#path-1-outside-1_28_953)"></path> <path d="M823.502 166.538L762.375 21.3846C761.76 19.6923 760.607 18.3846 758.915 17.4615C757.377 16.5385 755.686 15.9231 753.84 15.6154L741.154 12.8462V7.76924H824.194V12.8462L812.43 15.3846C808.585 16.1539 805.741 17.2308 803.895 18.6154C802.05 19.8461 801.127 21.5385 801.127 23.6923C801.127 24.3077 801.204 25.0769 801.358 26C801.665 26.9231 801.973 27.8462 802.281 28.7692L843.57 135.154H837.342L880.938 28.0769C881.246 27.3077 881.476 26.6154 881.63 26C881.784 25.3846 881.861 24.7692 881.861 24.1539C881.861 22.1539 881.015 20.6154 879.323 19.5385C877.632 18.3077 875.095 17.3846 871.711 16.7692L854.411 12.8462V7.76924H918.767V12.8462L904.236 15.8462C901.314 16.4615 898.853 17.3846 896.854 18.6154C894.855 19.6923 893.317 21.5385 892.241 24.1539L834.574 166.538H823.502Z" stroke="#565555" stroke-width="4" mask="url(#path-1-outside-1_28_953)"></path> <path d="M1001.2 165.615C989.202 165.615 978.207 163.615 968.211 159.615C958.216 155.462 949.527 149.846 942.146 142.769C934.765 135.538 928.998 127.154 924.846 117.615C920.848 108.077 918.849 97.9231 918.849 87.1538C918.849 75.4615 920.848 64.6923 924.846 54.8462C928.998 44.8462 934.765 36.1539 942.146 28.7692C949.527 21.3846 958.216 15.6923 968.211 11.6923C978.207 7.53847 989.202 5.46154 1001.2 5.46154C1013.19 5.46154 1024.26 7.53847 1034.41 11.6923C1044.56 15.6923 1053.33 21.3077 1060.71 28.5385C1068.09 35.7692 1073.78 44.1538 1077.78 53.6923C1081.93 63.0769 1084.01 73.2308 1084.01 84.1539C1084.01 95.8462 1081.93 106.615 1077.78 116.462C1073.78 126.308 1068.09 134.923 1060.71 142.308C1053.33 149.692 1044.56 155.462 1034.41 159.615C1024.26 163.615 1013.19 165.615 1001.2 165.615ZM1001.2 157.538C1010.88 157.538 1019.27 154.538 1026.34 148.538C1033.41 142.538 1038.87 134.077 1042.72 123.154C1046.72 112.077 1048.71 99.1538 1048.71 84.3846C1048.71 70.3846 1046.72 58.0769 1042.72 47.4615C1038.87 36.8461 1033.41 28.5385 1026.34 22.5385C1019.27 16.5385 1010.88 13.5385 1001.2 13.5385C991.816 13.5385 983.589 16.5385 976.515 22.5385C969.442 28.5385 963.906 37.0769 959.907 48.1538C956.063 59.0769 954.141 72.0769 954.141 87.1538C954.141 97.4615 955.217 106.923 957.37 115.538C959.677 124.154 962.906 131.615 967.058 137.923C971.21 144.231 976.131 149.077 981.821 152.462C987.664 155.846 994.123 157.538 1001.2 157.538Z" stroke="#565555" stroke-width="4" mask="url(#path-1-outside-1_28_953)"></path> <path d="M1100.13 163.077V158L1111.89 155.462C1117.28 154.231 1120.66 152.846 1122.04 151.308C1123.58 149.769 1124.35 146.615 1124.35 141.846V29C1124.35 24.0769 1123.58 20.8462 1122.04 19.3077C1120.66 17.7692 1117.28 16.4615 1111.89 15.3846L1100.13 12.8462V7.76924H1180.86V12.8462L1169.1 15.3846C1163.87 16.4615 1160.49 17.7692 1158.95 19.3077C1157.41 20.8462 1156.64 24.0769 1156.64 29V141.846C1156.64 146 1157.72 149.308 1159.87 151.769C1162.18 154.231 1166.41 155.462 1172.56 155.462H1201.62C1207.47 155.462 1212.62 154.769 1217.08 153.385C1221.54 151.846 1225.46 149.615 1228.84 146.692C1232.23 143.615 1235.22 139.846 1237.84 135.385L1248.68 117.615H1253.75C1252.22 124.385 1250.68 131.923 1249.14 140.231C1247.76 148.385 1247.06 156 1247.06 163.077H1100.13Z" stroke="#565555" stroke-width="4" mask="url(#path-1-outside-1_28_953)"></path> <path d="M1338.96 165.615C1331.58 165.615 1324.36 164.385 1317.28 161.923C1310.36 159.308 1304.06 155.692 1298.37 151.077C1292.83 146.462 1288.45 141 1285.22 134.692C1281.99 128.231 1280.37 121.154 1280.37 113.462V29C1280.37 24.0769 1279.61 20.8462 1278.07 19.3077C1276.68 17.7692 1273.3 16.4615 1267.92 15.3846L1256.15 12.8462V7.76924H1336.89V12.8462L1325.12 15.3846C1319.9 16.4615 1316.51 17.7692 1314.97 19.3077C1313.44 20.8462 1312.67 24.0769 1312.67 29V112.308C1312.67 123.846 1315.97 133 1322.59 139.769C1329.2 146.538 1339.04 149.923 1352.11 149.923C1359.65 149.923 1366.26 148.385 1371.95 145.308C1377.64 142.077 1382.1 137.692 1385.33 132.154C1388.71 126.615 1390.4 120.308 1390.4 113.231V29C1390.4 25.1539 1389.33 22.3077 1387.17 20.4615C1385.17 18.4615 1382.1 17.0769 1377.95 16.3077L1361.11 12.8462V7.76924H1424.54V12.8462L1411.16 15.8462C1407.01 16.7692 1403.86 18.1539 1401.71 20C1399.71 21.8462 1398.71 24.8462 1398.71 29V137.923C1396.25 137.923 1394.02 138.923 1392.02 140.923C1390.17 142.769 1387.94 145 1385.33 147.615C1382.87 150.231 1379.79 152.923 1376.1 155.692C1372.56 158.462 1367.8 160.846 1361.8 162.846C1355.96 164.692 1348.34 165.615 1338.96 165.615Z" stroke="#565555" stroke-width="4" mask="url(#path-1-outside-1_28_953)"></path> <path d="M1469.9 163.077V158L1481.67 155.462C1487.05 154.231 1490.43 152.846 1491.82 151.308C1493.35 149.769 1494.12 146.615 1494.12 141.846V15.3846H1477.28C1470.67 15.3846 1464.67 17.1538 1459.29 20.6923C1453.91 24.0769 1449.37 28.6923 1445.68 34.5385C1441.99 40.2308 1439.3 46.4615 1437.61 53.2308H1431.38C1432.3 49.0769 1433.07 44.3846 1433.69 39.1539C1434.46 33.7692 1434.92 28.3846 1435.07 23C1435.23 17.4616 1434.92 12.3846 1434.15 7.76924H1586.39C1585.62 12.3846 1585.31 17.4616 1585.47 23C1585.62 28.3846 1586.08 33.7692 1586.85 39.1539C1587.62 44.3846 1588.39 49.0769 1589.16 53.2308H1582.93C1581.24 46.4615 1578.55 40.2308 1574.86 34.5385C1571.17 28.6923 1566.63 24.0769 1561.25 20.6923C1556.02 17.1538 1550.02 15.3846 1543.25 15.3846H1526.42V141.846C1526.42 146.615 1527.18 149.769 1528.72 151.308C1530.26 152.846 1533.64 154.231 1538.87 155.462L1550.64 158V163.077H1469.9Z" stroke="#565555" stroke-width="4" mask="url(#path-1-outside-1_28_953)"></path> <path d="M1598.41 163.077V158L1610.17 155.462C1615.55 154.231 1618.94 152.846 1620.32 151.308C1621.86 149.769 1622.63 146.615 1622.63 141.846V29C1622.63 24.0769 1621.86 20.8462 1620.32 19.3077C1618.94 17.7692 1615.55 16.4615 1610.17 15.3846L1598.41 12.8462V7.76924H1679.14V12.8462L1667.38 15.3846C1662.15 16.4615 1658.77 17.7692 1657.23 19.3077C1655.69 20.8462 1654.92 24.0769 1654.92 29V141.846C1654.92 146.615 1655.69 149.769 1657.23 151.308C1658.77 152.846 1662.15 154.231 1667.38 155.462L1679.14 158V163.077H1598.41Z" stroke="#565555" stroke-width="4" mask="url(#path-1-outside-1_28_953)"></path> <path d="M1777.67 165.615C1765.68 165.615 1754.68 163.615 1744.69 159.615C1734.69 155.462 1726 149.846 1718.62 142.769C1711.24 135.538 1705.47 127.154 1701.32 117.615C1697.32 108.077 1695.32 97.9231 1695.32 87.1538C1695.32 75.4615 1697.32 64.6923 1701.32 54.8462C1705.47 44.8462 1711.24 36.1539 1718.62 28.7692C1726 21.3846 1734.69 15.6923 1744.69 11.6923C1754.68 7.53847 1765.68 5.46154 1777.67 5.46154C1789.67 5.46154 1800.74 7.53847 1810.89 11.6923C1821.04 15.6923 1829.8 21.3077 1837.18 28.5385C1844.57 35.7692 1850.26 44.1538 1854.25 53.6923C1858.41 63.0769 1860.48 73.2308 1860.48 84.1539C1860.48 95.8462 1858.41 106.615 1854.25 116.462C1850.26 126.308 1844.57 134.923 1837.18 142.308C1829.8 149.692 1821.04 155.462 1810.89 159.615C1800.74 163.615 1789.67 165.615 1777.67 165.615ZM1777.67 157.538C1787.36 157.538 1795.74 154.538 1802.81 148.538C1809.89 142.538 1815.35 134.077 1819.19 123.154C1823.19 112.077 1825.19 99.1538 1825.19 84.3846C1825.19 70.3846 1823.19 58.0769 1819.19 47.4615C1815.35 36.8461 1809.89 28.5385 1802.81 22.5385C1795.74 16.5385 1787.36 13.5385 1777.67 13.5385C1768.29 13.5385 1760.06 16.5385 1752.99 22.5385C1745.92 28.5385 1740.38 37.0769 1736.38 48.1538C1732.54 59.0769 1730.62 72.0769 1730.62 87.1538C1730.62 97.4615 1731.69 106.923 1733.85 115.538C1736.15 124.154 1739.38 131.615 1743.53 137.923C1747.69 144.231 1752.61 149.077 1758.3 152.462C1764.14 155.846 1770.6 157.538 1777.67 157.538Z" stroke="#565555" stroke-width="4" mask="url(#path-1-outside-1_28_953)"></path> <path d="M2028.15 167L1910.74 37.0769V141.846C1910.74 145.692 1911.74 148.615 1913.74 150.615C1915.9 152.462 1919.05 153.769 1923.2 154.538L1940.04 158V163.077H1876.6V158L1889.98 155C1894.14 154.077 1897.21 152.692 1899.21 150.846C1901.36 149 1902.44 146 1902.44 141.846V29C1902.44 25.7692 1902.13 23.3077 1901.52 21.6154C1900.9 19.9231 1899.67 18.6923 1897.83 17.9231C1896.13 17 1893.52 16.1539 1889.98 15.3846L1878.22 12.8462V7.76924H1927.12L2023.77 114.385V29C2023.77 25.1539 2022.69 22.3077 2020.54 20.4615C2018.54 18.4615 2015.47 17.0769 2011.31 16.3077L1994.48 12.8462V7.76924H2057.91V12.8462L2044.53 15.8462C2040.38 16.7692 2037.23 18.1539 2035.07 20C2033.07 21.8462 2032.07 24.8462 2032.07 29V167H2028.15Z" stroke="#565555" stroke-width="4" mask="url(#path-1-outside-1_28_953)"></path> <path d="M2218.73 165.615C2206.74 165.615 2195.74 163.615 2185.75 159.615C2175.75 155.462 2167.06 149.846 2159.68 142.769C2152.3 135.538 2146.53 127.154 2142.38 117.615C2138.38 108.077 2136.39 97.9231 2136.39 87.1538C2136.39 75.4615 2138.38 64.6923 2142.38 54.8462C2146.53 44.8462 2152.3 36.1539 2159.68 28.7692C2167.06 21.3846 2175.75 15.6923 2185.75 11.6923C2195.74 7.53847 2206.74 5.46154 2218.73 5.46154C2230.73 5.46154 2241.8 7.53847 2251.95 11.6923C2262.1 15.6923 2270.86 21.3077 2278.25 28.5385C2285.63 35.7692 2291.32 44.1538 2295.31 53.6923C2299.47 63.0769 2301.54 73.2308 2301.54 84.1539C2301.54 95.8462 2299.47 106.615 2295.31 116.462C2291.32 126.308 2285.63 134.923 2278.25 142.308C2270.86 149.692 2262.1 155.462 2251.95 159.615C2241.8 163.615 2230.73 165.615 2218.73 165.615ZM2218.73 157.538C2228.42 157.538 2236.8 154.538 2243.88 148.538C2250.95 142.538 2256.41 134.077 2260.25 123.154C2264.25 112.077 2266.25 99.1538 2266.25 84.3846C2266.25 70.3846 2264.25 58.0769 2260.25 47.4615C2256.41 36.8461 2250.95 28.5385 2243.88 22.5385C2236.8 16.5385 2228.42 13.5385 2218.73 13.5385C2209.35 13.5385 2201.13 16.5385 2194.05 22.5385C2186.98 28.5385 2181.44 37.0769 2177.44 48.1538C2173.6 59.0769 2171.68 72.0769 2171.68 87.1538C2171.68 97.4615 2172.75 106.923 2174.91 115.538C2177.21 124.154 2180.44 131.615 2184.59 137.923C2188.75 144.231 2193.67 149.077 2199.36 152.462C2205.2 155.846 2211.66 157.538 2218.73 157.538Z" stroke="#565555" stroke-width="4" mask="url(#path-1-outside-1_28_953)"></path> <path d="M2317.67 163.077V158L2329.43 155.462C2334.81 154.231 2338.2 152.846 2339.58 151.308C2341.12 149.769 2341.89 146.615 2341.89 141.846V29C2341.89 24.0769 2341.12 20.8462 2339.58 19.3077C2338.2 17.7692 2334.81 16.4615 2329.43 15.3846L2317.67 12.8462V7.76924H2449.61C2449.15 9.92309 2448.84 12.0769 2448.69 14.2308C2448.53 16.2308 2448.45 18.3077 2448.45 20.4615C2448.45 25.2308 2448.84 29.9231 2449.61 34.5385C2450.38 39 2451.15 43.6923 2451.91 48.6154H2446.84C2444.99 44 2442.69 39.6923 2439.92 35.6923C2437.15 31.6923 2434 28.2308 2430.46 25.3077C2427.08 22.2308 2423.16 19.8462 2418.7 18.1538C2414.39 16.3077 2409.7 15.3846 2404.63 15.3846H2374.18V81.8462H2403.71C2408.93 81.8462 2413.09 81.1538 2416.16 79.7692C2419.24 78.3846 2421.54 76.3846 2423.08 73.7692C2424.77 71.1539 2425.93 68 2426.54 64.3077L2428.39 53.6923H2433.46V117.615H2428.39L2426.31 106.538C2425.7 102.846 2424.54 99.7692 2422.85 97.3077C2421.31 94.6923 2419.01 92.7692 2415.93 91.5385C2413.01 90.1539 2409.09 89.4615 2404.17 89.4615H2374.18V141.846C2374.18 146.615 2374.95 149.846 2376.49 151.538C2378.02 153.077 2381.41 154.385 2386.64 155.462L2400.01 158V163.077H2317.67Z" stroke="#565555" stroke-width="4" mask="url(#path-1-outside-1_28_953)"></path> <path d="M2532.79 163.077V158L2544.55 155.462C2549.94 154.231 2553.32 152.846 2554.7 151.308C2556.24 149.769 2557.01 146.615 2557.01 141.846V29C2557.01 24.0769 2556.24 20.8462 2554.7 19.3077C2553.32 17.7692 2549.94 16.4615 2544.55 15.3846L2532.79 12.8462V7.76924H2618.14C2628.75 7.76924 2637.97 9.30769 2645.82 12.3846C2653.66 15.3077 2659.73 19.4615 2664.04 24.8461C2668.5 30.2308 2670.73 36.5385 2670.73 43.7692C2670.73 53.4616 2667.42 60.9231 2660.81 66.1539C2654.35 71.3846 2645.74 74.7692 2634.98 76.3077V76.7692C2642.51 77.2308 2649.66 79.0769 2656.43 82.3077C2663.19 85.5385 2668.65 90.0769 2672.81 95.9231C2677.11 101.615 2679.26 108.385 2679.26 116.231C2679.26 127.769 2676.27 137 2670.27 143.923C2664.27 150.692 2656.27 155.615 2646.28 158.692C2636.44 161.615 2625.52 163.077 2613.52 163.077H2532.79ZM2602.91 155.462H2609.14C2616.06 155.462 2621.98 153.846 2626.9 150.615C2631.82 147.231 2635.59 142.615 2638.21 136.769C2640.97 130.769 2642.36 123.923 2642.36 116.231C2642.36 108.846 2641.2 102.615 2638.9 97.5385C2636.59 92.3077 2632.9 88.3846 2627.83 85.7692C2622.9 83 2616.37 81.6154 2608.22 81.6154H2589.3V142.769C2589.3 147.846 2590.23 151.231 2592.07 152.923C2594.07 154.615 2597.68 155.462 2602.91 155.462ZM2589.3 74H2609.83C2617.98 74 2624.29 71 2628.75 65C2633.36 59 2635.67 52 2635.67 44C2635.67 35.3846 2632.9 28.4615 2627.36 23.2308C2621.98 18 2614.45 15.3846 2604.76 15.3846H2589.3V74Z" stroke="#565555" stroke-width="4" mask="url(#path-1-outside-1_28_953)"></path> <path d="M2686.06 163.077V158L2699.44 155C2702.82 154.231 2705.36 153.154 2707.05 151.769C2708.89 150.231 2710.36 148.231 2711.43 145.769L2758.49 34.3077L2751.34 16.5385C2756.26 16.3846 2760.41 15.4615 2763.79 13.7692C2767.18 11.9231 2769.71 9.92309 2771.41 7.76924C2773.1 5.46155 2773.94 3.53846 2773.94 2H2777.17L2837.61 148.769C2838.38 150.615 2839.61 152 2841.3 152.923C2842.99 153.846 2845.68 154.692 2849.37 155.462L2861.13 158V163.077H2780.4V158L2792.17 155.462C2795.55 154.692 2798.01 153.769 2799.55 152.692C2801.24 151.462 2802.08 149.846 2802.08 147.846C2802.08 147.077 2801.93 146.308 2801.62 145.538C2801.47 144.769 2801.24 143.923 2800.93 143L2759.87 40.0769H2764.95L2720.2 146C2720.04 146.462 2719.89 146.923 2719.74 147.385C2719.74 147.846 2719.74 148.231 2719.74 148.538C2719.74 149.923 2720.27 151.154 2721.35 152.231C2722.43 153.308 2724.2 154.077 2726.66 154.538L2746.49 158V163.077H2686.06ZM2734.73 110.923V103.308H2800.47V110.923H2734.73Z" stroke="#565555" stroke-width="4" mask="url(#path-1-outside-1_28_953)"></path> <path d="M3025.5 166.538C3019.04 166.538 3012.89 165.385 3007.04 163.077C3001.2 160.769 2995.51 157.077 2989.98 152C2984.44 146.923 2978.9 140.308 2973.37 132.154C2969.52 126.308 2965.6 120.615 2961.6 115.077C2957.6 109.385 2953.15 104.692 2948.22 101C2943.46 97.1538 2937.69 95.2308 2930.92 95.2308H2925.62V141.846C2925.62 146.615 2926.39 149.769 2927.93 151.308C2929.46 152.846 2932.85 154.231 2938.07 155.462L2949.84 158V163.077H2869.11V158L2880.87 155.462C2886.25 154.231 2889.63 152.846 2891.02 151.308C2892.56 149.769 2893.33 146.615 2893.33 141.846V29C2893.33 24.0769 2892.56 20.8462 2891.02 19.3077C2889.63 17.7692 2886.25 16.4615 2880.87 15.3846L2869.11 12.8462V7.76924H2933.69C2956.76 7.76924 2974.75 11.4615 2987.67 18.8462C3000.74 26.2308 3007.28 36.6923 3007.28 50.2308C3007.28 57.3077 3005.05 63.7692 3000.59 69.6154C2996.28 75.3077 2990.51 79.9231 2983.29 83.4615C2976.06 87 2968.14 89.2308 2959.53 90.1539V90.6154C2966.6 90.9231 2972.91 92.8462 2978.44 96.3846C2983.98 99.7692 2988.98 104.154 2993.44 109.538C2998.05 114.769 3002.35 120.385 3006.35 126.385C3010.35 132.077 3014.35 137.385 3018.35 142.308C3022.35 147.231 3026.42 151.231 3030.57 154.308C3034.88 157.231 3039.26 158.692 3043.72 158.692V164.231C3037.57 165.769 3031.5 166.538 3025.5 166.538ZM2925.62 87.6154H2933.69C2941.07 87.6154 2947.84 86.3846 2953.99 83.9231C2960.3 81.3077 2965.29 77.4616 2968.98 72.3846C2972.68 67.1539 2974.52 60.5385 2974.52 52.5385C2974.52 40.3846 2970.68 31.1538 2962.99 24.8461C2955.45 18.5385 2944.69 15.3846 2930.69 15.3846H2925.62V87.6154Z" stroke="#565555" stroke-width="4" mask="url(#path-1-outside-1_28_953)"></path> <path d="M3051.79 163.077V158L3063.56 155.462C3068.94 154.231 3072.32 152.846 3073.71 151.308C3075.24 149.769 3076.01 146.615 3076.01 141.846V29C3076.01 24.0769 3075.24 20.8462 3073.71 19.3077C3072.32 17.7692 3068.94 16.4615 3063.56 15.3846L3051.79 12.8462V7.76924H3137.14C3147.75 7.76924 3156.98 9.30769 3164.82 12.3846C3172.66 15.3077 3178.74 19.4615 3183.04 24.8461C3187.5 30.2308 3189.73 36.5385 3189.73 43.7692C3189.73 53.4616 3186.43 60.9231 3179.81 66.1539C3173.35 71.3846 3164.74 74.7692 3153.98 76.3077V76.7692C3161.51 77.2308 3168.66 79.0769 3175.43 82.3077C3182.2 85.5385 3187.66 90.0769 3191.81 95.9231C3196.11 101.615 3198.27 108.385 3198.27 116.231C3198.27 127.769 3195.27 137 3189.27 143.923C3183.27 150.692 3175.28 155.615 3165.28 158.692C3155.44 161.615 3144.52 163.077 3132.53 163.077H3051.79ZM3121.91 155.462H3128.14C3135.06 155.462 3140.98 153.846 3145.9 150.615C3150.83 147.231 3154.59 142.615 3157.21 136.769C3159.98 130.769 3161.36 123.923 3161.36 116.231C3161.36 108.846 3160.21 102.615 3157.9 97.5385C3155.59 92.3077 3151.9 88.3846 3146.83 85.7692C3141.91 83 3135.37 81.6154 3127.22 81.6154H3108.31V142.769C3108.31 147.846 3109.23 151.231 3111.07 152.923C3113.07 154.615 3116.69 155.462 3121.91 155.462ZM3108.31 74H3128.84C3136.99 74 3143.29 71 3147.75 65C3152.36 59 3154.67 52 3154.67 44C3154.67 35.3846 3151.9 28.4615 3146.37 23.2308C3140.98 18 3133.45 15.3846 3123.76 15.3846H3108.31V74Z" stroke="#565555" stroke-width="4" mask="url(#path-1-outside-1_28_953)"></path> <path d="M3216.68 163.077V158L3228.45 155.462C3233.83 154.231 3237.21 152.846 3238.6 151.308C3240.13 149.769 3240.9 146.615 3240.9 141.846V29C3240.9 24.0769 3240.13 20.8462 3238.6 19.3077C3237.21 17.7692 3233.83 16.4615 3228.45 15.3846L3216.68 12.8462V7.76924H3297.42V12.8462L3285.65 15.3846C3280.42 16.4615 3277.04 17.7692 3275.5 19.3077C3273.97 20.8462 3273.2 24.0769 3273.2 29V141.846C3273.2 146.615 3273.97 149.769 3275.5 151.308C3277.04 152.846 3280.42 154.231 3285.65 155.462L3297.42 158V163.077H3216.68Z" stroke="#565555" stroke-width="4" mask="url(#path-1-outside-1_28_953)"></path> <path d="M3311.29 163.077V158L3323.06 155.462C3328.44 154.231 3331.82 152.846 3333.21 151.308C3334.74 149.769 3335.51 146.615 3335.51 141.846V29C3335.51 24.0769 3334.74 20.8462 3333.21 19.3077C3331.82 17.7692 3328.44 16.4615 3323.06 15.3846L3311.29 12.8462V7.76924H3443.47C3443 9.92309 3442.7 12.0769 3442.54 14.2308C3442.39 16.2308 3442.31 18.3077 3442.31 20.4615C3442.31 25.2308 3442.7 29.9231 3443.47 34.5385C3444.23 39 3445 43.6923 3445.77 48.6154H3440.7C3438.24 42.4616 3435.01 36.9231 3431.01 32C3427.01 26.9231 3422.32 22.9231 3416.94 20C3411.56 16.9231 3405.41 15.3846 3398.49 15.3846H3367.81V77.2308H3397.33C3405.02 77.2308 3410.48 75.6923 3413.71 72.6154C3417.09 69.5385 3419.25 65.2308 3420.17 59.6923L3422.01 49.0769H3427.09V113H3422.01L3419.94 101.923C3419.01 96.5385 3416.94 92.3846 3413.71 89.4615C3410.48 86.3846 3405.17 84.8461 3397.79 84.8461H3367.81V135.615C3367.81 140.077 3368.04 143.846 3368.5 146.923C3368.96 149.846 3370.27 152 3372.42 153.385C3374.73 154.769 3378.49 155.462 3383.72 155.462H3400.79C3406.33 155.462 3411.25 154.692 3415.55 153.154C3419.86 151.462 3423.78 149.154 3427.32 146.231C3430.86 143.154 3434.08 139.538 3437.01 135.385L3446.93 121.538H3452C3450.46 128.308 3449.08 135.154 3447.85 142.077C3446.77 149 3446.23 156 3446.23 163.077H3311.29Z" stroke="#565555" stroke-width="4" mask="url(#path-1-outside-1_28_953)"></path> </svg> 