<?xml version="1.0" encoding="UTF-8"?> <svg xmlns="http://www.w3.org/2000/svg" width="2141" height="845" viewBox="0 0 2141 845" fill="none"> <path d="M1152.1 98.8953C1228.07 81.162 1303.54 51.2303 1380.52 38.5123C1397.5 35.7065 1456.35 15.3122 1462.25 33.0229" stroke="#D8FD12" stroke-width="14" stroke-linecap="round"></path> <path d="M7.57031 527.066C134.813 448.848 238.532 344.285 309.181 212.8C331.335 171.568 343.925 126.603 360.262 83.0371C367.973 62.4752 375.358 47.2441 375.358 25.3987C375.358 18.2115 362.179 59.5578 359.5 67.1789C342.822 114.618 330.837 163.615 320.617 212.8C300.629 308.989 274.278 403.861 260.234 501.296C256.704 525.784 226.835 823.492 216.014 823.492C201.623 823.492 186.333 819.191 172.251 822.272C165.627 823.721 134.76 837.215 157.003 837.215C219.73 837.215 280.221 801.534 342.422 801.534" stroke="#D8FD12" stroke-width="14" stroke-linecap="round"></path> <path d="M633.358 85.1719C569.732 113.286 537.641 142.148 524.181 212.037C514.665 261.449 528.605 294.96 561.387 332.193C652.502 435.682 765.623 338.298 816.947 248.481C859.682 173.694 856.139 95.3394 778.827 52.3882C703.485 10.5317 628.799 69.6963 583.954 126.342" stroke="#D8FD12" stroke-width="14" stroke-linecap="round"></path> <path d="M852.933 112.619C839.147 266.853 901.931 420.321 879.16 573.725C872.656 617.539 849.911 658.112 828.078 695.864C798.03 747.822 761.619 768.744 704.11 784.609C662.227 796.163 609.9 808.733 582.734 765.853C570.386 746.362 555.885 716.01 570.231 694.492" stroke="#D8FD12" stroke-width="14" stroke-linecap="round"></path> <path d="M1176.81 104.385C1168.7 168.246 1168.57 230.501 1168.57 294.683C1168.57 320.06 1188.42 264 1201.51 253.207C1237.49 223.538 1304.67 226.72 1347.59 232.317C1417.74 241.468 1472.15 317.628 1498.7 376.718C1558.3 509.386 1483.08 743.617 1341.18 788.878C1280.44 808.252 1167.83 828.436 1135.64 755.18C1122.85 726.077 1122.55 693.02 1126.18 661.86C1127.88 647.286 1128.91 625.54 1141.12 645.087" stroke="#D8FD12" stroke-width="14" stroke-linecap="round"></path> <path d="M1810.83 98.8953C1741.83 328.641 1688.9 587.119 1870.6 779.882C1954.53 868.915 2026.41 749.278 2061.36 677.414C2107.82 581.845 2125.38 460.34 2131.35 354.761C2135.81 275.778 2136.56 187.019 2103.14 113.991C2084.81 73.9428 2039.48 14.871 1991.37 8.93071C1831.18 -10.8449 1807.25 146.736 1791.61 271.81" stroke="#D8FD12" stroke-width="14" stroke-linecap="round"></path> </svg> 