<?xml version="1.0" encoding="UTF-8"?> <svg xmlns="http://www.w3.org/2000/svg" width="1932" height="869" viewBox="0 0 1932 869" fill="none"> <path d="M1602.26 121.657C1533.26 351.402 1480.33 609.881 1662.03 802.643C1745.96 891.677 1817.84 772.039 1852.79 700.175C1899.25 604.607 1916.81 483.101 1922.78 377.522C1927.24 298.54 1927.99 209.78 1894.57 136.752C1876.24 96.7042 1830.91 37.6323 1782.8 31.6921C1622.61 11.9165 1598.68 169.497 1583.04 294.572" stroke="#D8FD12" stroke-width="14" stroke-linecap="round"></path> <path d="M1100.14 121.657C1031.15 351.402 978.213 609.881 1159.91 802.643C1243.84 891.677 1315.73 772.039 1350.67 700.175C1397.14 604.607 1414.69 483.101 1420.66 377.522C1425.12 298.54 1425.87 209.78 1392.45 136.752C1374.12 96.7042 1328.8 37.6323 1280.68 31.6921C1120.5 11.9165 1096.56 169.497 1080.93 294.572" stroke="#D8FD12" stroke-width="14" stroke-linecap="round"></path> <path d="M588.142 121.657C519.149 351.402 466.213 609.881 647.915 802.643C731.84 891.677 803.727 772.039 838.67 700.175C885.139 604.607 902.695 483.101 908.66 377.522C913.122 298.54 913.87 209.78 880.45 136.752C862.123 96.7042 816.797 37.6323 768.681 31.6921C608.498 11.9165 584.563 169.497 568.929 294.572" stroke="#D8FD12" stroke-width="14" stroke-linecap="round"></path> <path d="M118.671 246.801C89.114 186.384 89.1303 158.368 120.996 104.616C140.048 72.4794 165.412 18.191 206.147 9.24454C241.821 1.40965 270.058 32.0405 286.939 59.8379C314.111 104.583 308.877 163.57 301.615 213.072C287.533 309.053 247.38 439.628 174.179 507.328C146.807 532.643 116.657 550.308 95.1313 581.764C69.8792 618.664 58.0667 652.746 46.7435 695.599C33.0907 747.269 -1.89595 903.749 9.10863 851.45C20.9987 794.943 67.5494 769.28 121.577 762.33C192.843 753.163 229.41 823.708 294.785 838.802C349.74 851.49 430.931 758.295 443 709.992" stroke="#D8FD12" stroke-width="14" stroke-linecap="round"></path> </svg> 