<?xml version="1.0" encoding="UTF-8"?> <svg xmlns="http://www.w3.org/2000/svg" width="136" height="218" viewBox="0 0 136 218" fill="none"> <path d="M2 2C16.53 20.4837 30.5603 39.2346 44.859 57.8562C53.9618 69.711 64.1198 81.7499 67.9369 96.5941C73.7149 119.064 77.1188 140.701 85.0551 162.658C90.7702 178.469 99.3886 192.721 113.586 201.713C116.164 203.346 131.979 215.526 134.381 213.125" stroke="#D8FD12" stroke-width="3" stroke-linecap="round"></path> <path d="M109 214.91C114.416 214.91 123.928 213.175 129.61 215.204C130.962 215.687 133.732 216.195 133.732 214.321C133.732 210.443 128.996 206.748 127.582 203.165C125.677 198.34 124.899 194.129 124.899 189" stroke="#D8FD12" stroke-width="3" stroke-linecap="round"></path> </svg> 