<?xml version="1.0" encoding="UTF-8"?> <svg xmlns="http://www.w3.org/2000/svg" width="389" height="457" viewBox="0 0 389 457" fill="none"> <path d="M73.3179 73.6738C87.6318 106.324 104.119 138.531 111.311 173.71C112.398 179.029 114.175 185.82 113.229 191.337C112.736 194.211 109.186 186.979 108.023 184.304C101.468 169.233 98.8247 152.46 102.361 136.265C103.186 132.485 104.638 123.592 110.337 126.523C116.962 129.931 121.024 138.861 126.593 143.693C140.742 155.969 137.756 131.802 136.822 122.992C134.91 104.948 132.52 78.5476 117.278 65.9412C104.319 55.2234 115.371 82.3504 117.247 85.6989C128.962 106.604 143.095 127.529 158.833 145.702C162.999 150.513 173.764 166.304 176.581 153.344C179.1 141.755 181.563 124.519 178.377 112.732C177.193 108.351 171.318 103.307 169.853 110.267C167.832 119.866 176.439 130.548 183.979 135.26C196.8 143.274 204.893 133.077 206.903 120.769C211.614 91.9109 204.659 65.5938 192.229 39.6688C191.352 37.8396 179.318 12.2892 175.911 24.2949C173.326 33.405 176.628 44.0984 179.169 52.7593C183.385 67.13 189.816 80.2033 197.952 92.7312C206.898 106.506 217.072 123.452 230.222 133.89C234.063 136.939 233.266 130.335 233.266 128.198C233.266 114.349 232.412 100.467 231.683 86.6426C230.585 65.807 229.295 44.7709 225.808 24.1732C224.826 18.3726 222.529 12.9181 219.445 7.91651C211.814 -4.45757 212.218 11.032 213.478 17.5974C219.021 46.4803 233.512 76.1379 247.696 101.682C251.996 109.424 257.085 116.298 262.918 122.931C265.878 126.297 269.806 131.94 274.73 132.612C285.053 134.019 284.821 105.533 284.746 100.19C284.665 94.4097 285.352 82.2484 281.275 77.2661C278.314 73.6469 281.812 84.4595 281.945 84.8464C285.356 94.8039 289.171 109.984 298.628 116.051C307.036 121.444 306.552 94.6095 306.33 91.7266C305.986 87.259 298.976 64.1639 290.774 72.9127C284.329 79.7864 289.055 98.874 294.731 104.878C302.321 112.906 309.458 86.4842 310.744 82.1979C311.322 80.2719 312.149 74.3439 312.236 76.3528C312.459 81.4843 312.527 86.6215 312.784 91.757" stroke="#D8FD12" stroke-width="5" stroke-linecap="round"></path> <path d="M17.4242 286.289C22.7171 308.691 30.2774 330.553 34.5942 353.173C34.8929 354.738 36.7106 371.523 36.0554 363.006" stroke="#D8FD12" stroke-width="5" stroke-linecap="round"></path> <path d="M3.17676 362.458C14.8656 348.729 28.5719 335.362 37.6993 319.715" stroke="#D8FD12" stroke-width="5" stroke-linecap="round"></path> <path d="M39.3433 287.933C49.0149 311.873 58.813 336.819 62.5714 362.549C62.8874 364.712 62.7298 367.5 63.4238 369.582C64.7909 373.683 63.4097 360.936 63.4543 356.613C63.5652 345.857 64.1893 333.158 67.5337 322.821C68.0937 321.09 73.1103 332.368 73.9876 333.841C79.0221 342.294 83.4005 340.364 87.1391 331.376C88.7455 327.513 93.9585 312.212 90.3052 308.33C87.1363 304.963 90.8609 317.786 92.8319 321.969C94.0161 324.481 95.6903 327.371 97.9464 329.092C101.273 331.631 102.741 326.085 104.005 324.1" stroke="#D8FD12" stroke-width="5" stroke-linecap="round"></path> <path d="M110.032 310.948C110.215 308.602 115.709 282.788 110.093 281.54C108.63 281.215 109.041 284.308 109.18 284.889C110.116 288.813 113.678 291.342 116.669 293.687C121.883 297.775 133.023 304.618 126.411 312.47C122.83 316.722 109.856 322.612 112.224 313.14" stroke="#D8FD12" stroke-width="5" stroke-linecap="round"></path> <path d="M155.515 264.918C158.703 275.511 161.306 286.826 166.352 296.762C167.877 299.763 168.722 300.917 169.762 297.797" stroke="#D8FD12" stroke-width="5" stroke-linecap="round"></path> <path d="M182.365 266.014C182.091 263.455 182.732 252.935 177.921 253.563C174.265 254.039 171.906 257.654 170.706 260.839C165.99 273.346 186.846 270.678 193.021 270.519C199.95 270.341 207.963 269.785 214.666 271.889C221.249 273.956 215.786 278.226 212.169 279.622C206.729 281.722 200.821 282.53 195.03 282.879C189.92 283.188 192.736 281.93 195.517 280.261" stroke="#D8FD12" stroke-width="5" stroke-linecap="round"></path> <path d="M236.615 234.231C249.097 240.346 257.239 248.042 262.674 260.991C262.983 261.726 265.904 271.219 262.979 269.241C255.594 264.248 242.832 233.106 254.029 226.742C263.771 221.205 273.368 240.939 274.304 247.565C274.977 252.335 272.411 243.344 272.295 242.573C271.413 236.718 270.729 229.241 272.051 223.393C274.543 212.37 287.661 232.251 289.891 234.536C305.476 250.507 314.264 223.936 315.28 211.46C315.69 206.424 314.484 199.768 309.131 197.669C303.69 195.535 300.999 200.431 302.312 205.31C304.924 215.021 317.557 220.037 326.544 220.562C341.421 221.432 350.42 213.566 361.006 204.64" stroke="#D8FD12" stroke-width="5" stroke-linecap="round"></path> <path d="M371.418 171.214C396.673 225.847 388.359 290.674 354.704 339.626C332.159 372.419 302.543 401.274 272.721 427.485C264.853 434.4 256.5 440.442 248.305 446.907C243.783 450.475 247.984 447.037 249.858 445.324C264.844 431.63 273.462 410.119 278.261 390.831C278.531 389.749 281.001 380.485 281.001 382.124C281.001 389.267 279.4 395.572 276.587 402.156C269.947 417.7 263.892 432.861 254.394 446.907C248.155 456.134 251.587 454.109 262.309 453.94C272.782 453.775 283.194 452.536 293.666 452.357C295.089 452.332 304.765 452.153 304.016 451.778" stroke="#D8FD12" stroke-width="5" stroke-linecap="round"></path> <path d="M335.251 95.0449C335.336 99.2842 338.77 108.485 333.059 110.388" stroke="#D8FD12" stroke-width="5" stroke-linecap="round"></path> <path d="M154.119 261.138C154.278 259.669 154.949 258.024 154.949 256.573" stroke="#D8FD12" stroke-width="5" stroke-linecap="round"></path> <path d="M87.2325 302.423C87.2325 301.877 87.8474 298.2 87.2325 298.2" stroke="#D8FD12" stroke-width="5" stroke-linecap="round"></path> </svg> 