<?xml version="1.0" encoding="UTF-8"?> <svg xmlns="http://www.w3.org/2000/svg" width="580" height="413" viewBox="0 0 580 413" fill="none"> <path d="M3.41455 240.699C32.5821 281.95 63.7935 324.101 84.7573 370.317C90.2552 382.437 103.619 420.048 99.826 407.291C96.7463 396.932 90.7575 386.526 84.7573 377.572C75.2692 363.413 70.0424 348.451 62.9915 333.133C48.9118 302.547 15.6036 266.762 32.3659 230.095C37.3182 219.262 52.9511 213.594 64.317 215.793C81.0386 219.03 77.6268 252.957 77.502 264.557C77.4631 268.179 73.2774 298.671 75.2696 287.16C77.3685 275.033 86.447 271.017 97.8726 270.836C123.21 270.434 157.483 284.473 160.38 314.158C162.777 338.731 168.097 403.033 130.382 405.128C119.971 405.706 109.479 412.311 99.4771 406.384C95.2512 403.88 79.3629 393.129 85.0364 388.874" stroke="#D8FD12" stroke-width="6" stroke-linecap="round"></path> <path d="M185.494 348.691C193.684 355.631 212.064 375.16 218.631 355.458C221.131 347.957 222.287 335.166 219.398 327.622C215.291 316.899 199.584 304.602 188.773 315.414C184.139 320.048 182.982 333.42 182.982 339.901C182.982 351.322 192.728 354.029 203.074 354.969" stroke="#D8FD12" stroke-width="6" stroke-linecap="round"></path> <path d="M210.608 299.717C213.336 307.135 223.022 345.699 242.28 332.366C261.362 319.156 241.301 294.442 233.211 281.858C228.934 275.204 262.62 269.01 265.581 274.603C270.831 284.52 254.474 309.763 279.673 309.763C290.553 309.763 292.148 284.214 292.858 277.114C295.476 250.933 294.732 219.313 280.301 196.33C269.118 178.521 257.624 187.547 258.396 204.911C259.274 224.673 282.636 234.125 293.974 248.024C304.221 260.584 313.663 275.859 331.785 275.859C348.501 275.859 345.568 255.364 344.901 243.35C343.239 213.44 287.428 239.664 317.345 269.58" stroke="#D8FD12" stroke-width="6" stroke-linecap="round"></path> <path d="M344.97 216.84C350.943 233.42 352.174 245.582 371.131 245.582C384.714 245.582 383.174 230.379 383.898 220.607" stroke="#D8FD12" stroke-width="6" stroke-linecap="round"></path> <path d="M386.409 216.84C386.36 208.519 391.598 184.825 377.34 184.191C371.346 183.925 367.428 186.22 364.364 191.446C358.072 202.181 367.998 216.196 375.108 223.118C383.361 231.155 402.079 235.493 409.71 224.374C415.041 216.605 413.545 206.61 419.058 199.26" stroke="#D8FD12" stroke-width="6" stroke-linecap="round"></path> <path d="M439.149 141.497C450.837 150.889 468.704 160.871 475.565 175.401C480.733 186.344 470.466 176.573 468.031 171.634C465.574 166.65 445.208 126.709 459.241 126.428C471.515 126.183 481.077 135.967 485.611 146.799C489.511 156.114 502.023 159.695 503.121 145.961C503.805 137.416 502.175 128.47 496.215 122.033C492.877 118.428 481.213 111.056 488.262 120.847C496.198 131.869 524.867 140.591 523.213 118.266C522.362 106.776 504.635 84.9117 491.192 92.5933C475.02 101.834 484.403 120.535 496.913 127.684" stroke="#D8FD12" stroke-width="6" stroke-linecap="round"></path> <path d="M498.168 92.5236C499.277 89.788 512.039 67.4092 503.191 67.4092C500.146 67.4092 499.985 68.3719 499.424 71.1763" stroke="#D8FD12" stroke-width="6" stroke-linecap="round"></path> <path d="M515.748 90.0121C534.668 100.343 557.187 116.589 557.187 85.2683C557.187 73.945 549.98 62.7345 537.096 62.3863C533.117 62.2787 526.112 68.7373 532.352 70.8973C543.836 74.8725 551.728 76.1029 562.768 69.9206C570.727 65.4637 581.804 58.1165 574.558 47.2479C567.888 37.2426 556.406 33.0618 547.141 40.3414C543.201 43.4376 540.287 54.4572 547.141 48.3641C559.553 37.3312 554.298 16.9254 550.908 3.36743" stroke="#D8FD12" stroke-width="6" stroke-linecap="round"></path> </svg> 