<?xml version="1.0" encoding="UTF-8"?> <svg xmlns="http://www.w3.org/2000/svg" width="134" height="134" viewBox="0 0 134 134" fill="none"> <path d="M67.2278 8.74766C67.5838 8.74766 67.9128 8.6665 68.2149 8.50417C68.517 8.34184 68.7652 8.11939 68.9594 7.83682C69.1536 7.54824 69.2641 7.22058 69.2911 6.85384L70.7152 6.85384C70.6883 7.431 70.513 7.96909 70.1893 8.4681C69.871 8.96109 69.453 9.3609 68.9351 9.66752C68.4172 9.96813 67.8481 10.1184 67.2278 10.1184C66.5696 10.1184 65.9951 9.98917 65.5042 9.73065C65.0187 9.47212 64.6142 9.11741 64.2905 8.6665C63.9722 8.21559 63.7322 7.69854 63.5704 7.11537C63.4139 6.52618 63.3357 5.90392 63.3357 5.2486V4.86983C63.3357 4.21451 63.4139 3.59526 63.5704 3.01208C63.7322 2.42289 63.9722 1.90284 64.2905 1.45193C64.6142 1.00102 65.0187 0.646305 65.5042 0.387783C65.9951 0.129261 66.5696 0 67.2278 0C67.9128 0 68.5116 0.156316 69.0241 0.468947C69.5366 0.775566 69.9384 1.19642 70.2297 1.7315C70.5264 2.26056 70.6883 2.86178 70.7152 3.53514L69.2911 3.53514C69.2641 3.13232 69.1617 2.76859 68.9836 2.44393C68.811 2.11928 68.5737 1.86076 68.2716 1.66837C67.9749 1.46997 67.6269 1.37077 67.2278 1.37077C66.7692 1.37077 66.3835 1.47297 66.0707 1.67739C65.7632 1.87579 65.5177 2.14633 65.3343 2.48903C65.1563 2.82571 65.0268 3.20146 64.9459 3.6163C64.8704 4.02513 64.8326 4.44297 64.8326 4.86983V5.2486C64.8326 5.67546 64.8704 6.09631 64.9459 6.51115C65.0214 6.92598 65.1482 7.30174 65.3262 7.63842C65.5096 7.9751 65.7551 8.24565 66.0626 8.45006C66.3754 8.64846 66.7638 8.74766 67.2278 8.74766Z" fill="#D8FD12"></path> <path d="M72.786 5.99741L72.8192 5.79331C72.9316 5.10113 73.1266 4.474 73.4042 3.91192C73.6827 3.34392 74.0283 2.8688 74.441 2.48657C74.8547 2.09843 75.3241 1.82258 75.8493 1.65902C76.3754 1.48954 76.94 1.45385 77.5432 1.55194C78.1517 1.6509 78.6787 1.86412 79.1241 2.19159C79.5758 2.51401 79.9364 2.92484 80.206 3.4241C80.4818 3.91831 80.662 4.47893 80.7464 5.10597C80.8318 5.72708 80.8183 6.38373 80.7059 7.0759L80.6728 7.28C80.5604 7.97218 80.3654 8.59931 80.0878 9.16139C79.8102 9.72348 79.4619 10.1982 79.0429 10.5854C78.6302 10.9677 78.1608 11.2435 77.6347 11.413C77.1149 11.5774 76.5507 11.6102 75.9422 11.5112C75.3337 11.4122 74.8062 11.202 74.3599 10.8804C73.9145 10.553 73.5539 10.1421 73.278 9.6479C73.0084 9.14865 72.831 8.58846 72.7455 7.96734C72.6601 7.34623 72.6736 6.68958 72.786 5.99741ZM74.3005 6.0342L74.2673 6.2383C74.1895 6.7175 74.1667 7.17832 74.1989 7.62077C74.2321 8.0573 74.3237 8.45475 74.4737 8.81311C74.6291 9.17235 74.8462 9.4718 75.125 9.71146C75.4048 9.9452 75.7502 10.0955 76.1613 10.1623C76.5669 10.2283 76.9368 10.1943 77.2708 10.0604C77.6112 9.92147 77.9092 9.70579 78.1649 9.41339C78.4206 9.121 78.6332 8.77303 78.8029 8.36949C78.9788 7.9609 79.1057 7.517 79.1835 7.03781L79.2166 6.8337C79.2935 6.36042 79.3127 5.90508 79.2741 5.46769C79.2419 5.02524 79.1481 4.6244 78.9928 4.26516C78.8437 3.90088 78.6298 3.59891 78.3509 3.35925C78.0774 3.12045 77.7352 2.96763 77.3241 2.90079C76.9185 2.83482 76.5454 2.87131 76.2051 3.01028C75.8701 3.15011 75.5716 3.36874 75.3096 3.66618C75.0539 3.95858 74.8408 4.3095 74.6702 4.71896C74.5006 5.12251 74.3773 5.56092 74.3005 6.0342Z" fill="#D8FD12"></path> <path d="M85.2198 5.28591L82.7748 12.6145L81.3331 12.1329L84.3844 2.98693L85.7486 3.44266L85.2198 5.28591ZM84.1215 7.59656L83.4634 7.34851C83.6772 6.72473 83.9449 6.17215 84.2663 5.69078C84.5896 5.20377 84.9591 4.81051 85.3749 4.51099C85.7907 4.21147 86.2462 4.02542 86.7413 3.95283C87.2384 3.87461 87.7659 3.92872 88.324 4.11516C88.7167 4.24636 89.0577 4.42918 89.3471 4.66364C89.6383 4.89246 89.8621 5.17704 90.0185 5.5174C90.1749 5.85775 90.2525 6.25324 90.2515 6.70385C90.2505 7.15447 90.1541 7.66718 89.9624 8.24197L87.9291 14.3364L86.4952 13.8574L88.5031 7.839C88.6629 7.36001 88.7158 6.95179 88.6618 6.61433C88.613 6.2786 88.4759 6.00105 88.2504 5.78167C88.0269 5.55666 87.7342 5.38373 87.3725 5.2629C86.9488 5.12134 86.5676 5.0848 86.2289 5.15328C85.8901 5.22176 85.5876 5.37121 85.3212 5.60164C85.0548 5.83207 84.8208 6.12029 84.6192 6.46632C84.4246 6.80844 84.2588 7.18519 84.1215 7.59656ZM89.8425 8.54954L88.7743 8.54966C88.9467 8.04986 89.1824 7.59308 89.4813 7.17933C89.7853 6.7673 90.137 6.42757 90.5363 6.16014C90.9408 5.89443 91.3846 5.72637 91.8675 5.65597C92.3523 5.57993 92.8608 5.63082 93.3931 5.80862C93.8426 5.95881 94.2189 6.15654 94.5218 6.40181C94.83 6.6488 95.0578 6.94725 95.2052 7.29715C95.3597 7.64314 95.4294 8.04535 95.4143 8.50378C95.3992 8.96222 95.2958 9.47883 95.104 10.0536L93.099 16.0636L91.6573 15.5819L93.668 9.55509C93.8391 9.04228 93.8967 8.61997 93.8408 8.28815C93.792 7.95242 93.6521 7.68332 93.421 7.48085C93.1969 7.27447 92.9015 7.11 92.5346 6.98743C92.2194 6.88213 91.9206 6.84808 91.6383 6.88529C91.3559 6.92249 91.0973 7.01773 90.8624 7.17099C90.6294 7.31862 90.4247 7.51018 90.2485 7.74569C90.0775 7.98292 89.9422 8.25087 89.8425 8.54954Z" fill="#D8FD12"></path> <path d="M98.5493 20.0636C97.9978 19.774 97.5494 19.4127 97.2039 18.9796C96.866 18.544 96.6313 18.0599 96.4998 17.5275C96.3732 16.9975 96.3552 16.4386 96.4457 15.8506C96.5363 15.2626 96.7367 14.6728 97.047 14.0811L97.2185 13.7541C97.5779 13.0689 97.9929 12.509 98.4636 12.0744C98.937 11.6345 99.4352 11.3136 99.9582 11.1116C100.481 10.9096 101 10.8215 101.516 10.8473C102.031 10.8731 102.511 11.0026 102.955 11.2358C103.521 11.5331 103.955 11.8932 104.256 12.3161C104.562 12.7415 104.748 13.2103 104.816 13.7224C104.886 14.2293 104.853 14.7679 104.715 15.338C104.581 15.9029 104.359 16.4812 104.048 17.0729L103.709 17.7191L97.795 14.6129L98.4116 13.4373L102.972 15.8323L103.029 15.7233C103.205 15.3393 103.323 14.9376 103.381 14.518C103.444 14.101 103.401 13.7078 103.253 13.3384C103.104 12.9691 102.798 12.6627 102.335 12.4192C102.027 12.2578 101.707 12.1792 101.375 12.1835C101.046 12.1826 100.718 12.2684 100.391 12.441C100.064 12.6135 99.7468 12.8675 99.4401 13.2029C99.1335 13.5384 98.8468 13.9605 98.58 14.4691L98.4085 14.7961C98.1989 15.1958 98.0527 15.599 97.9701 16.0058C97.8951 16.4099 97.8882 16.7969 97.9494 17.1667C98.0155 17.539 98.153 17.876 98.362 18.1778C98.5758 18.4821 98.8682 18.7316 99.239 18.9264C99.7173 19.1775 100.177 19.2864 100.617 19.2531C101.058 19.2198 101.494 19.0946 101.925 18.8775L102.382 20.001C102.067 20.1864 101.712 20.3344 101.318 20.4452C100.924 20.5559 100.493 20.5879 100.026 20.5412C99.5636 20.497 99.0714 20.3378 98.5493 20.0636Z" fill="#D8FD12"></path> <path d="M108.108 21.7459L108.249 21.6104C108.727 21.151 109.237 20.7948 109.78 20.5417C110.326 20.2848 110.877 20.1424 111.431 20.1146C111.99 20.0828 112.532 20.1733 113.058 20.3859C113.589 20.5946 114.076 20.9309 114.522 21.3949C114.971 21.8629 115.289 22.3662 115.476 22.9047C115.671 23.4434 115.742 23.9914 115.687 24.5486C115.641 25.106 115.479 25.6528 115.2 26.189C114.926 26.7212 114.549 27.217 114.071 27.6764L113.931 27.8119C113.453 28.2713 112.942 28.6275 112.4 28.8806C111.857 29.1336 111.305 29.274 110.742 29.3016C110.188 29.3294 109.645 29.2389 109.115 29.0302C108.593 28.8217 108.107 28.4834 107.658 28.0154C107.209 27.5474 106.889 27.0461 106.698 26.5115C106.511 25.9729 106.44 25.425 106.486 24.8676C106.54 24.3103 106.705 23.7656 106.979 23.2333C107.254 22.7011 107.63 22.2053 108.108 21.7459ZM109.343 22.7497L109.202 22.8852C108.871 23.2032 108.596 23.5426 108.376 23.9033C108.161 24.2601 108.016 24.6245 107.941 24.9964C107.87 25.3725 107.884 25.7424 107.982 26.1062C108.083 26.4661 108.286 26.804 108.59 27.1202C108.889 27.4322 109.214 27.6444 109.566 27.7567C109.925 27.8691 110.292 27.8954 110.666 27.8355C111.041 27.7755 111.41 27.6452 111.775 27.4444C112.148 27.2438 112.5 26.9845 112.831 26.6664L112.972 26.531C113.299 26.2168 113.568 25.8793 113.779 25.5185C113.998 25.1577 114.143 24.7893 114.214 24.4133C114.293 24.0374 114.284 23.6676 114.186 23.3038C114.092 22.9441 113.894 22.6062 113.59 22.2901C113.291 21.9781 112.961 21.7658 112.602 21.6533C112.247 21.545 111.878 21.5207 111.495 21.5804C111.121 21.6404 110.749 21.7727 110.38 21.9774C110.015 22.1782 109.669 22.4356 109.343 22.7497Z" fill="#D8FD12"></path> <path d="M118.294 29.6386L112.441 33.6815L111.528 32.3588L118.97 27.2185L119.833 28.4697L118.294 29.6386ZM116.227 30.602L115.867 30.0372C116.38 29.6904 116.904 29.4444 117.44 29.2993C117.981 29.1509 118.507 29.1041 119.019 29.1589C119.531 29.2136 120.005 29.3715 120.442 29.6324C120.887 29.895 121.271 30.2598 121.593 30.727C121.856 31.1083 122.043 31.4863 122.152 31.861C122.266 32.2326 122.289 32.6 122.222 32.9634C122.158 33.3315 121.993 33.6915 121.728 34.0434C121.468 34.3922 121.092 34.736 120.602 35.0749L115.725 38.4431L114.808 37.1133L119.698 33.7356C120.088 33.4664 120.358 33.1914 120.51 32.9107C120.666 32.6269 120.718 32.3341 120.666 32.0325C120.618 31.7277 120.479 31.4085 120.249 31.0748C120.022 30.746 119.749 30.4916 119.428 30.3117C119.111 30.1367 118.768 30.0322 118.4 29.9983C118.034 29.9692 117.662 30.0043 117.284 30.1037C116.914 30.2047 116.561 30.3708 116.227 30.602Z" fill="#D8FD12"></path> <path d="M127.353 52.3412L126.163 52.6862L124.951 48.4979L126.141 48.1528L127.353 52.3412Z" fill="#D8FD12"></path> <path d="M131.661 72.1353L130.513 72.089L130.725 66.8186L131.873 66.8649L131.661 72.1353ZM133.928 68.7345L133.861 70.4012L125.152 70.05C124.856 70.038 124.63 70.0801 124.475 70.1761C124.32 70.2721 124.215 70.4002 124.16 70.5604C124.105 70.7206 124.073 70.8938 124.066 71.08C124.06 71.2181 124.065 71.3627 124.081 71.5137C124.101 71.671 124.118 71.789 124.131 71.8677L122.91 71.8275C122.877 71.6938 122.849 71.5182 122.826 71.3007C122.796 71.089 122.788 70.833 122.8 70.5327C122.816 70.1242 122.904 69.7518 123.064 69.4153C123.223 69.0788 123.477 68.8153 123.824 68.6248C124.177 68.4405 124.645 68.3601 125.227 68.3836L133.928 68.7345Z" fill="#D8FD12"></path> <path d="M123.309 81.3041L129.931 82.6569L129.598 84.2926L120.986 82.5333L121.303 80.9768L123.309 81.3041ZM125.061 81.9826L124.939 82.663C124.366 82.5459 123.849 82.3701 123.388 82.1356C122.932 81.9079 122.556 81.6113 122.26 81.2455C121.964 80.8798 121.764 80.4389 121.659 79.9228C121.56 79.4078 121.58 78.8103 121.718 78.1303C121.813 77.6671 121.961 77.2546 122.162 76.8926C122.361 76.5364 122.617 76.2466 122.928 76.0231C123.238 75.7996 123.614 75.6534 124.053 75.5844C124.492 75.5213 124.998 75.5483 125.571 75.6654L131.126 76.8003L130.794 78.4271L125.223 77.289C124.835 77.2098 124.505 77.1912 124.231 77.2329C123.961 77.2816 123.735 77.3729 123.553 77.5067C123.375 77.6474 123.236 77.8145 123.136 78.0077C123.035 78.2068 122.961 78.4178 122.916 78.6406C122.775 79.3323 122.782 79.9049 122.939 80.3582C123.1 80.8125 123.367 81.1694 123.74 81.4287C124.117 81.695 124.557 81.8797 125.061 81.9826Z" fill="#D8FD12"></path> <path d="M126.555 90.0598L119.57 87.4086L120.152 85.8718L128.44 89.0171L127.873 90.5124L126.555 90.0598ZM126.839 93.3793L125.525 92.871C125.599 92.7533 125.66 92.6373 125.709 92.5229C125.762 92.4161 125.815 92.2906 125.87 92.1466C126.004 91.7922 126.071 91.4599 126.072 91.1497C126.073 90.8396 126.017 90.5555 125.905 90.2974C125.792 90.0393 125.629 89.8065 125.416 89.5988C125.205 89.3986 124.956 89.2247 124.667 89.0772L124.601 88.558C125.102 88.7479 125.551 88.9788 125.951 89.2507C126.348 89.5281 126.672 89.8443 126.923 90.1993C127.179 90.5562 127.335 90.945 127.392 91.3656C127.452 91.7937 127.389 92.2514 127.205 92.7388C127.163 92.8496 127.102 92.9721 127.022 93.1064C126.947 93.2427 126.886 93.3336 126.839 93.3793Z" fill="#D8FD12"></path> <path d="M122.945 97.6076L116.831 94.0757L117.641 92.6724L125.414 97.1631L124.648 98.4905L122.945 97.6076ZM121.205 96.1574L121.563 95.5858C122.092 95.898 122.535 96.265 122.892 96.687C123.253 97.1116 123.517 97.5675 123.683 98.0544C123.849 98.5414 123.906 99.0398 123.855 99.5495C123.805 100.067 123.638 100.574 123.352 101.069C123.118 101.474 122.856 101.807 122.563 102.07C122.276 102.336 121.954 102.517 121.598 102.615C121.239 102.717 120.844 102.725 120.415 102.639C119.991 102.556 119.522 102.366 119.01 102.07L113.917 99.1275L114.731 97.7166L119.838 100.668C120.245 100.903 120.607 101.028 120.925 101.042C121.247 101.06 121.533 100.979 121.783 100.8C122.038 100.624 122.267 100.358 122.472 100.004C122.673 99.6555 122.787 99.2968 122.815 98.9283C122.839 98.5649 122.789 98.209 122.665 97.8605C122.537 97.5171 122.349 97.196 122.1 96.8971C121.853 96.606 121.554 96.3594 121.205 96.1574Z" fill="#D8FD12"></path> <path d="M110.467 110.124L110.598 110.272C111.041 110.773 111.38 111.301 111.616 111.856C111.855 112.415 111.98 112.973 111.99 113.53C112.004 114.09 111.896 114.628 111.667 115.144C111.442 115.665 111.091 116.136 110.614 116.559C110.133 116.986 109.621 117.28 109.077 117.44C108.534 117.609 107.985 117.653 107.43 117.572C106.876 117.498 106.335 117.309 105.809 117.004C105.286 116.703 104.804 116.303 104.36 115.802L104.23 115.654C103.786 115.153 103.447 114.626 103.212 114.07C102.976 113.515 102.854 112.955 102.844 112.391C102.834 111.835 102.941 111.297 103.166 110.776C103.391 110.264 103.744 109.795 104.225 109.368C104.706 108.941 105.217 108.645 105.756 108.48C106.3 108.319 106.849 108.276 107.403 108.349C107.958 108.431 108.496 108.622 109.019 108.922C109.541 109.223 110.024 109.624 110.467 110.124ZM109.426 111.311L109.296 111.163C108.989 110.816 108.659 110.525 108.306 110.288C107.957 110.055 107.598 109.892 107.229 109.799C106.856 109.709 106.486 109.705 106.12 109.785C105.758 109.869 105.414 110.055 105.089 110.344C104.768 110.628 104.546 110.943 104.423 111.289C104.299 111.643 104.261 112.009 104.309 112.387C104.357 112.764 104.476 113.141 104.665 113.516C104.853 113.899 105.101 114.263 105.407 114.61L105.538 114.758C105.841 115.1 106.17 115.386 106.523 115.615C106.876 115.852 107.239 116.015 107.612 116.104C107.985 116.202 108.354 116.21 108.72 116.13C109.082 116.054 109.425 115.872 109.751 115.583C110.071 115.299 110.294 114.98 110.417 114.626C110.537 114.275 110.573 113.908 110.525 113.522C110.477 113.144 110.357 112.766 110.164 112.387C109.975 112.012 109.729 111.653 109.426 111.311Z" fill="#D8FD12"></path> <path d="M102.49 120.532L98.5252 114.257L99.827 113.433L104.868 121.411L103.637 122.19L102.49 120.532ZM101.547 118.352L102.102 118.032C102.442 118.58 102.683 119.133 102.825 119.69C102.97 120.252 103.015 120.791 102.961 121.307C102.906 121.824 102.75 122.294 102.493 122.718C102.234 123.15 101.875 123.512 101.415 123.803C101.04 124.04 100.668 124.2 100.299 124.282C99.9339 124.368 99.5726 124.363 99.2155 124.266C98.8537 124.171 98.5001 123.975 98.1545 123.678C97.8121 123.385 97.4747 122.976 97.1423 122.45L93.8389 117.223L95.1477 116.394L98.4604 121.637C98.7244 122.055 98.9943 122.352 99.27 122.528C99.5488 122.71 99.8365 122.786 100.133 122.756C100.433 122.732 100.747 122.615 101.075 122.408C101.399 122.203 101.649 121.945 101.827 121.633C101.999 121.324 102.103 120.983 102.137 120.611C102.166 120.242 102.132 119.861 102.035 119.468C101.936 119.083 101.773 118.711 101.547 118.352Z" fill="#D8FD12"></path> <path d="M79.6246 128.83L79.2991 127.508L83.1545 126.558L83.4801 127.879L79.6246 128.83Z" fill="#D8FD12"></path> <path d="M62.8452 124.974C62.4901 124.945 62.1554 125 61.8411 125.137C61.5267 125.274 61.2614 125.476 61.045 125.742C60.8281 126.013 60.6915 126.331 60.6351 126.694L59.2147 126.579C59.288 126.006 59.5061 125.485 59.869 125.014C60.226 124.548 60.6751 124.184 61.2163 123.92C61.7569 123.662 62.3366 123.559 62.9554 123.609C63.6118 123.662 64.1744 123.837 64.6432 124.134C65.1067 124.43 65.4817 124.816 65.7683 125.291C66.0495 125.766 66.2473 126.3 66.3619 126.894C66.4706 127.494 66.4986 128.12 66.446 128.772L66.4155 129.15C66.3629 129.802 66.2351 130.413 66.0322 130.981C65.8235 131.555 65.5422 132.054 65.1886 132.477C64.8295 132.9 64.3975 133.221 63.8925 133.439C63.3821 133.657 62.7987 133.739 62.1423 133.686C61.4591 133.631 60.8744 133.427 60.3884 133.075C59.9019 132.728 59.5349 132.276 59.2873 131.72C59.0339 131.169 58.9208 130.557 58.948 129.884L60.3684 129.999C60.363 130.403 60.436 130.773 60.5874 131.111C60.7335 131.448 60.9495 131.725 61.2353 131.941C61.5153 132.162 61.8543 132.289 62.2525 132.321C62.7098 132.358 63.1027 132.287 63.4312 132.109C63.7538 131.936 64.0204 131.686 64.2308 131.36C64.4354 131.039 64.5947 130.675 64.7088 130.268C64.817 129.867 64.8882 129.454 64.9225 129.029L64.9529 128.652C64.9872 128.227 64.9834 127.805 64.9414 127.385C64.8994 126.966 64.8031 126.582 64.6526 126.232C64.4968 125.882 64.2737 125.593 63.9834 125.364C63.6873 125.141 63.3079 125.011 62.8452 124.974Z" fill="#D8FD12"></path> <path d="M56.8311 128.559L56.7818 128.759C56.6147 129.438 56.3703 130.045 56.0484 130.58C55.7251 131.122 55.342 131.565 54.8993 131.911C54.4551 132.263 53.9641 132.498 53.4262 132.618C52.887 132.743 52.3197 132.733 51.7246 132.586C51.1241 132.438 50.6143 132.183 50.1949 131.821C49.7689 131.464 49.4409 131.026 49.2109 130.508C48.9743 129.995 48.8385 129.423 48.8037 128.793C48.7674 128.169 48.8328 127.518 48.9999 126.84L49.0491 126.64C49.2162 125.962 49.4607 125.355 49.7826 124.819C50.1044 124.284 50.4901 123.841 50.9396 123.49C51.3823 123.144 51.8733 122.909 52.4126 122.783C52.9452 122.663 53.5117 122.676 54.1121 122.824C54.7126 122.972 55.2231 123.224 55.6439 123.58C56.0632 123.942 56.3912 124.38 56.6279 124.893C56.8579 125.411 56.991 125.982 57.0273 126.606C57.0636 127.23 56.9982 127.881 56.8311 128.559ZM55.3202 128.399L55.3695 128.199C55.4852 127.729 55.5444 127.273 55.5471 126.831C55.5484 126.395 55.4883 125.993 55.3667 125.624C55.2398 125.255 55.0465 124.94 54.7867 124.679C54.5255 124.424 54.1921 124.246 53.7865 124.146C53.3862 124.047 53.0139 124.051 52.6694 124.157C52.3182 124.267 52.0033 124.457 51.7246 124.726C51.4459 124.996 51.2058 125.324 51.0044 125.711C50.7962 126.102 50.6343 126.533 50.5186 127.002L50.4693 127.202C50.3551 127.666 50.3 128.117 50.3039 128.555C50.3012 128.997 50.3632 129.403 50.4901 129.772C50.6103 130.146 50.8003 130.464 51.06 130.724C51.3146 130.984 51.6446 131.164 52.0502 131.264C52.4505 131.363 52.8262 131.357 53.1774 131.247C53.5233 131.135 53.8389 130.942 54.1243 130.668C54.403 130.399 54.6438 130.068 54.8467 129.675C55.0481 129.288 55.206 128.863 55.3202 128.399Z" fill="#D8FD12"></path> <path d="M43.4052 127.593L46.4128 120.53L47.8185 121.129L44.0651 129.944L42.735 129.377L43.4052 127.593ZM44.6811 125.394L45.3206 125.695C45.0589 126.296 44.7488 126.822 44.3903 127.272C44.0295 127.728 43.6296 128.087 43.1907 128.349C42.7517 128.611 42.2817 128.757 41.7806 128.788C41.2773 128.823 40.7536 128.725 40.2094 128.493C39.8265 128.33 39.4993 128.12 39.2277 127.863C38.9538 127.611 38.7516 127.31 38.6212 126.959C38.4908 126.608 38.4433 126.21 38.4789 125.763C38.5144 125.316 38.6501 124.815 38.886 124.261L41.3871 118.387L42.7852 118.983L40.3153 124.784C40.1187 125.246 40.0345 125.646 40.0627 125.985C40.0858 126.323 40.2018 126.61 40.4106 126.846C40.6171 127.088 40.8967 127.284 41.2494 127.435C41.6625 127.611 42.0412 127.679 42.3853 127.64C42.7295 127.601 43.0437 127.478 43.3279 127.272C43.6121 127.066 43.8683 126.799 44.0965 126.473C44.3174 126.15 44.5122 125.79 44.6811 125.394ZM39.0294 123.966L40.0984 124.056C39.8875 124.537 39.6167 124.971 39.286 125.356C38.9503 125.739 38.5724 126.046 38.1523 126.278C37.7272 126.507 37.2703 126.637 36.7817 126.666C36.2907 126.7 35.7858 126.607 35.2668 126.386C34.8285 126.199 34.4671 125.971 34.1827 125.702C33.8933 125.431 33.6882 125.116 33.5675 124.756C33.4394 124.4 33.4004 123.995 33.4506 123.542C33.5009 123.088 33.6439 122.585 33.8798 122.031L36.3462 116.238L37.7519 116.837L35.2786 122.646C35.0681 123.14 34.9781 123.555 35.0086 123.888C35.0317 124.226 35.1512 124.504 35.3669 124.725C35.5753 124.948 35.8584 125.136 36.2161 125.289C36.5234 125.42 36.8198 125.479 37.1051 125.466C37.3905 125.453 37.6566 125.38 37.9034 125.248C38.1479 125.121 38.3673 124.948 38.5616 124.729C38.7509 124.508 38.9069 124.254 39.0294 123.966Z" fill="#D8FD12"></path> <path d="M32.1504 110.777C32.6805 111.113 33.1023 111.51 33.4159 111.97C33.7216 112.432 33.9206 112.933 34.0128 113.473C34.1002 114.01 34.077 114.566 33.943 115.142C33.809 115.718 33.5649 116.286 33.2108 116.846L33.0151 117.156C32.6051 117.805 32.1486 118.324 31.6458 118.715C31.1398 119.11 30.6178 119.386 30.0798 119.541C29.5419 119.696 29.0161 119.738 28.5024 119.667C27.9888 119.597 27.5185 119.427 27.0916 119.157C26.5475 118.812 26.1405 118.417 25.8707 117.971C25.5962 117.522 25.4441 117.041 25.4144 116.526C25.3817 116.017 25.4549 115.485 25.6343 114.932C25.8105 114.382 26.0757 113.828 26.4298 113.267L26.8165 112.655L32.502 116.253L31.7985 117.367L27.4147 114.593L27.3495 114.696C27.1446 115.062 26.9975 115.45 26.9083 115.862C26.8143 116.27 26.828 116.664 26.9494 117.044C27.0707 117.423 27.3542 117.754 27.7998 118.036C28.0954 118.223 28.4094 118.329 28.7419 118.353C29.0712 118.383 29.4058 118.326 29.7456 118.183C30.0854 118.041 30.421 117.816 30.7525 117.51C31.084 117.203 31.4019 116.809 31.7063 116.328L31.902 116.018C32.1412 115.64 32.3171 115.252 32.4298 114.855C32.5347 114.461 32.5702 114.077 32.5363 113.705C32.4977 113.329 32.3851 112.983 32.1984 112.665C32.007 112.345 31.733 112.072 31.3765 111.846C30.9168 111.555 30.4653 111.407 30.0221 111.402C29.5789 111.396 29.1336 111.483 28.6862 111.661L28.3128 110.506C28.6416 110.349 29.0072 110.233 29.4096 110.157C29.812 110.082 30.2451 110.087 30.7089 110.175C31.168 110.259 31.6485 110.459 32.1504 110.777Z" fill="#D8FD12"></path> <path d="M22.4984 108.928L22.3483 109.051C21.8393 109.467 21.3055 109.777 20.7471 109.981C20.1843 110.189 19.6258 110.282 19.0716 110.26C18.513 110.242 17.9794 110.104 17.4708 109.845C16.9578 109.589 16.4962 109.21 16.0861 108.707C15.6724 108.2 15.3918 107.67 15.2442 107.116C15.0887 106.561 15.058 106.008 15.152 105.456C15.238 104.904 15.4391 104.373 15.7551 103.863C16.0667 103.356 16.4771 102.895 16.9861 102.479L17.1362 102.356C17.6452 101.94 18.179 101.63 18.7374 101.426C19.2959 101.222 19.8562 101.131 20.4184 101.154C20.9726 101.175 21.5062 101.314 22.0192 101.569C22.5242 101.824 22.9836 102.205 23.3973 102.712C23.811 103.219 24.0938 103.748 24.2457 104.298C24.3933 104.852 24.424 105.405 24.338 105.957C24.2439 106.509 24.0411 107.038 23.7294 107.544C23.4178 108.051 23.0074 108.512 22.4984 108.928ZM21.3412 107.817L21.4913 107.694C21.8437 107.406 22.142 107.092 22.3863 106.751C22.6262 106.414 22.7969 106.064 22.8983 105.699C22.996 105.33 23.0092 104.96 22.938 104.588C22.8623 104.22 22.6848 103.865 22.4054 103.522C22.1295 103.184 21.8208 102.943 21.479 102.8C21.1293 102.656 20.7658 102.597 20.3887 102.623C20.0115 102.65 19.6339 102.747 19.2561 102.915C18.8703 103.082 18.5012 103.309 18.1488 103.597L17.9987 103.72C17.6506 104.004 17.3584 104.317 17.1221 104.658C16.8778 104.999 16.7068 105.354 16.6091 105.723C16.5034 106.091 16.4861 106.461 16.5574 106.832C16.6251 107.2 16.7986 107.554 17.0781 107.897C17.3539 108.235 17.6667 108.476 18.0164 108.62C18.3625 108.76 18.7281 108.817 19.1133 108.792C19.4905 108.765 19.8701 108.666 20.2523 108.495C20.6302 108.327 20.9931 108.101 21.3412 107.817Z" fill="#D8FD12"></path> <path d="M12.538 100.551L18.6513 97.0191L19.461 98.4224L11.6881 102.913L10.9223 101.586L12.538 100.551ZM14.6629 99.7684L14.9784 100.365C14.4439 100.667 13.9048 100.867 13.3613 100.965C12.813 101.066 12.2866 101.067 11.7821 100.968C11.2776 100.868 10.8177 100.668 10.4023 100.369C9.97919 100.067 9.62468 99.6687 9.33875 99.1731C9.10535 98.7685 8.94796 98.374 8.8666 97.9895C8.78044 97.6077 8.78426 97.2381 8.87806 96.8805C8.96894 96.5178 9.15897 96.172 9.44813 95.8431C9.73251 95.517 10.1309 95.2059 10.6434 94.9099L15.7366 91.9672L16.5507 93.3781L11.443 96.329C11.0359 96.5642 10.7467 96.8156 10.5754 97.0831C10.3993 97.3534 10.3262 97.6418 10.3561 97.9481C10.3812 98.2573 10.4959 98.5888 10.7001 98.9428C10.9014 99.2917 11.1547 99.5702 11.4599 99.7782C11.7622 99.9812 12.0952 100.116 12.4591 100.182C12.82 100.243 13.1921 100.241 13.5753 100.174C13.9508 100.106 14.3133 99.9703 14.6629 99.7684Z" fill="#D8FD12"></path> <path d="M5.90918 77.0075L7.11895 76.7603L7.99444 81.0517L6.78467 81.2988L5.90918 77.0075Z" fill="#D8FD12"></path> <path d="M2.74993 57.0441L3.89217 57.1829L3.2578 62.411L2.11556 62.2722L2.74993 57.0441ZM0.214709 60.2456L0.415321 58.5923L9.07865 59.645C9.3736 59.6808 9.60229 59.6572 9.76474 59.5742C9.92718 59.4911 10.0423 59.3721 10.1101 59.2171C10.1779 59.0621 10.223 58.8922 10.2454 58.7076C10.262 58.5705 10.2686 58.4262 10.2652 58.2747C10.2572 58.1165 10.2499 57.9977 10.2432 57.9183L11.4589 58.057C11.4805 58.1926 11.4944 58.3696 11.5006 58.588C11.5128 58.8011 11.5009 59.0566 11.4647 59.3545C11.4156 59.7596 11.298 60.1232 11.112 60.4452C10.926 60.7672 10.6518 61.009 10.2893 61.1705C9.92228 61.3254 9.44916 61.3677 8.87 61.2973L0.214709 60.2456Z" fill="#D8FD12"></path> <path d="M11.3346 48.4503L4.81912 46.5618L5.2812 44.9654L13.7545 47.4214L13.3147 48.9405L11.3346 48.4503ZM9.63606 47.6324L9.81169 46.967C10.3755 47.1304 10.8786 47.3475 11.3208 47.6184C11.7594 47.8819 12.1122 48.2075 12.3792 48.5949C12.6462 48.9824 12.8118 49.4366 12.876 49.9576C12.9351 50.4771 12.8685 51.0687 12.6764 51.7324C12.5456 52.1844 12.3654 52.5818 12.1361 52.9247C11.9083 53.2618 11.6302 53.5285 11.3018 53.7248C10.9734 53.921 10.5866 54.0353 10.1416 54.0676C9.69816 54.0941 9.19454 54.0256 8.6307 53.8622L3.16458 52.2778L3.62418 50.69L9.10595 52.2789C9.48707 52.3894 9.81617 52.4352 10.0933 52.4163C10.3668 52.3901 10.5998 52.3181 10.7924 52.2003C10.9814 52.0752 11.1336 51.9209 11.249 51.7373C11.366 51.5479 11.456 51.3445 11.519 51.1271C11.7144 50.4519 11.7518 49.8829 11.6311 49.42C11.5052 48.9556 11.2661 48.5793 10.9138 48.2911C10.558 47.9957 10.132 47.7761 9.63606 47.6324Z" fill="#D8FD12"></path> <path d="M9.34937 39.6228L16.1384 42.8465L15.439 44.3215L7.38442 40.497L8.06496 39.0618L9.34937 39.6228ZM9.31709 36.3057L10.5937 36.9217C10.5109 37.0322 10.4406 37.142 10.3827 37.2513C10.3224 37.3529 10.2594 37.4728 10.1939 37.611C10.0326 37.9512 9.93979 38.2751 9.91554 38.5827C9.89129 38.8903 9.92565 39.1768 10.0186 39.4424C10.1116 39.708 10.2569 39.9528 10.4547 40.1769C10.6499 40.3934 10.8864 40.5871 11.1641 40.758L11.1908 41.2787C10.7045 41.0477 10.2718 40.7804 9.89293 40.4768C9.51655 40.1678 9.21625 39.8266 8.99205 39.4531C8.76288 39.0773 8.63588 38.6784 8.61105 38.2563C8.58378 37.8266 8.68105 37.3778 8.90285 36.9101C8.95326 36.8038 9.02364 36.6874 9.11399 36.561C9.19937 36.4322 9.26707 36.3471 9.31709 36.3057Z" fill="#D8FD12"></path> <path d="M13.5803 32.4068L19.4333 36.4497L18.521 37.7724L11.0791 32.6321L11.9422 31.3809L13.5803 32.4068ZM15.2134 33.9994L14.8131 34.5356C14.3074 34.1793 13.8917 33.776 13.5658 33.3258C13.2355 32.8724 13.0051 32.3966 12.8749 31.8985C12.7446 31.4003 12.7238 30.9004 12.8126 30.3987C12.9001 29.8892 13.105 29.4008 13.4272 28.9337C13.6902 28.5524 13.9773 28.244 14.2886 28.0087C14.5953 27.7701 14.9304 27.618 15.2939 27.5524C15.6606 27.482 16.0554 27.5084 16.4782 27.6315C16.8964 27.7515 17.3508 27.9809 17.8414 28.3198L22.7178 31.688L21.8005 33.0178L16.9104 29.6401C16.5206 29.3709 16.1678 29.2151 15.8517 29.1728C15.5311 29.1272 15.2391 29.1824 14.9759 29.3384C14.708 29.4912 14.459 29.7344 14.2289 30.068C14.002 30.3969 13.8614 30.7431 13.8069 31.1066C13.7558 31.4654 13.7797 31.8233 13.8788 32.1802C13.9811 32.5324 14.1458 32.8678 14.3728 33.1865C14.5985 33.4972 14.8787 33.7682 15.2134 33.9994Z" fill="#D8FD12"></path> <path d="M26.6853 20.5213L26.5658 20.3622C26.1607 19.8228 25.8611 19.2654 25.6669 18.69C25.4693 18.1101 25.3855 17.5419 25.4155 16.9855C25.442 16.4245 25.5877 15.8965 25.8527 15.4015C26.1142 14.9018 26.4976 14.462 27.003 14.082C27.5127 13.6987 28.0438 13.4508 28.5961 13.3385C29.1495 13.2182 29.6991 13.2233 30.245 13.3539C30.7918 13.4765 31.3161 13.7134 31.8178 14.0648C32.3161 14.4115 32.7678 14.8546 33.1728 15.394L33.2923 15.553C33.6974 16.0925 33.997 16.6499 34.1912 17.2253C34.3853 17.8006 34.4669 18.3705 34.4359 18.9349C34.4059 19.4912 34.2602 20.0193 33.9987 20.5189C33.7382 21.0106 33.353 21.4481 32.8432 21.8314C32.3335 22.2147 31.8041 22.4649 31.2552 22.5819C30.7029 22.6942 30.1533 22.6891 29.6064 22.5665C29.0606 22.4359 28.5385 22.1972 28.0403 21.8505C27.542 21.5038 27.0903 21.0607 26.6853 20.5213ZM27.8067 19.4291L27.9262 19.5882C28.2066 19.9616 28.5139 20.2824 28.8482 20.5505C29.179 20.8139 29.5245 21.0085 29.8849 21.1343C30.2497 21.2568 30.6172 21.2942 30.9873 21.2467C31.354 21.1946 31.7095 21.0391 32.0539 20.7802C32.3937 20.5246 32.6374 20.2296 32.785 19.895C32.9336 19.5524 32.9976 19.1904 32.9771 18.8091C32.9566 18.4277 32.8659 18.0414 32.7051 17.6502C32.5452 17.251 32.3251 16.8647 32.0447 16.4912L31.9252 16.3322C31.6482 15.9633 31.3421 15.6489 31.0069 15.3888C30.6726 15.1207 30.3231 14.9254 29.9583 14.803C29.5945 14.6726 29.2275 14.6311 28.8573 14.6786C28.4917 14.7228 28.1367 14.8743 27.7923 15.1332C27.4525 15.3888 27.2083 15.6878 27.0597 16.0304C26.9156 16.3696 26.8533 16.7339 26.8728 17.1232C26.8933 17.5046 26.9857 17.8932 27.15 18.289C27.3108 18.6802 27.5297 19.0603 27.8067 19.4291Z" fill="#D8FD12"></path> <path d="M35.7717 11.2577L39.2467 17.8832L37.8926 18.5944L33.4743 10.1704L34.7553 9.49762L35.7717 11.2577ZM36.5481 13.5211L35.9723 13.7938C35.675 13.2151 35.4764 12.6408 35.3767 12.0709C35.2742 11.4958 35.2692 10.9522 35.3617 10.4403C35.4542 9.92829 35.6439 9.47117 35.9308 9.06891C36.2199 8.65889 36.6035 8.3283 37.0818 8.07714C37.4721 7.87212 37.8534 7.74469 38.2256 7.69485C38.5951 7.63983 38.9536 7.67663 39.3011 7.80525C39.6535 7.93131 39.9904 8.15823 40.3117 8.486C40.6302 8.80859 40.9352 9.24757 41.2264 9.80294L44.1216 15.323L42.7601 16.038L39.8568 10.5024C39.6254 10.0612 39.3793 9.7403 39.1185 9.53966C38.8549 9.33383 38.5747 9.23273 38.2779 9.23637C37.9783 9.23482 37.6578 9.32374 37.3162 9.50314C36.9795 9.67997 36.7115 9.91669 36.5123 10.2133C36.318 10.5073 36.1902 10.8393 36.129 11.209C36.0727 11.5763 36.0782 11.9606 36.1456 12.3621C36.2152 12.7559 36.3494 13.1422 36.5481 13.5211Z" fill="#D8FD12"></path> <path d="M59.1623 4.78351L59.3814 6.13236L55.474 6.7678L55.255 5.41895L59.1623 4.78351Z" fill="#D8FD12"></path> </svg> 